<?xml version="1.0" encoding="UTF-8" standalone="no"?>
<svg
   version="1.1"
   id="Layer_1"
   x="0"
   y="0"
   xml:space="preserve"
   width="1385.198"
   height="1362.9"
   sodipodi:docname="mission-zero-logo-no-writing.svg"
   inkscape:export-filename="mission-zero-logo-no-writing.png"
   inkscape:export-xdpi="138.60834"
   inkscape:export-ydpi="138.60834"
   inkscape:version="1.2.2 (b0a8486, 2022-12-01)"
   xmlns:inkscape="http://www.inkscape.org/namespaces/inkscape"
   xmlns:sodipodi="http://sodipodi.sourceforge.net/DTD/sodipodi-0.dtd"
   xmlns:xlink="http://www.w3.org/1999/xlink"
   xmlns="http://www.w3.org/2000/svg"
   xmlns:svg="http://www.w3.org/2000/svg"><sodipodi:namedview
     id="namedview3103"
     pagecolor="#ffffff"
     bordercolor="#666666"
     borderopacity="1.0"
     inkscape:showpageshadow="2"
     inkscape:pageopacity="0.0"
     inkscape:pagecheckerboard="0"
     inkscape:deskcolor="#d1d1d1"
     showgrid="false"
     inkscape:zoom="0.54632286"
     inkscape:cx="494.21326"
     inkscape:cy="669.01831"
     inkscape:window-width="2256"
     inkscape:window-height="1463"
     inkscape:window-x="0"
     inkscape:window-y="0"
     inkscape:window-maximized="1"
     inkscape:current-layer="Layer_1" /><defs
     id="defs16777"><clipPath
       id="SVGID_7_-0"><use
         xlink:href="#SVGID_6_-3"
         id="use5738"
         x="0"
         y="0"
         width="100%"
         height="100%"
         overflow="visible" /></clipPath><filter
       id="Adobe_OpacityMaskFilter_1_-6"
       filterUnits="userSpaceOnUse"
       x="848.9"
       y="818"
       width="183.3"
       height="252.2"><feFlood
         result="back"
         id="feFlood5741" /><feBlend
         in="SourceGraphic"
         in2="back"
         mode="normal"
         id="feBlend5743" /></filter><path
       id="SVGID_6_-3"
       d="M927.3 905.9c-2.8 7.6-11.4 12.6-19.3 11.3l-52.4-8.7L982.3 1096l72.6-42.5v-46.8L947.8 850.1z" /></defs><style
     type="text/css"
     id="style15242">.st2{fill:none}.st3{fill:#e22084}.st5{fill:#fdcc38}.st9{fill:#009249}.st10{fill:#b62c87}.st11{fill:#939597}.st14{fill:#eca60b}.st15{fill:#f6b71e}.st16{fill:#fac224}.st17{fill:#766c79}.st18{enable-background:new}.st19{fill:#d20b76}.st21{fill:#9d92a0}.st22{fill:#cfc6d4}.st23{fill:#e2dfe0}.st33{fill:#c30c80}.st40{fill:#a01977}</style><path
     d="M1358.158 551.7c.2-.8.4-1.7.6-2.5l.4-1.8c.6-1.7 1.1-3.5 1.5-5.3l1.9-8.7c.1-.4.2-.9.3-1.3l1.7-7.7c.1-.5.2-.9.3-1.4l1.6-7.5c.1-.5.2-1 .4-1.5l5.8-27 11.5-53.2c5.3-24.3-10.2-48.2-34.5-53.5l-19.2-4.2c-.5-.1-1-.2-1.4-.3-.5-.1-1-.2-1.4-.3l-19.2-4.2c-1.8-.4-3.7-.7-5.5-.8-1.8-.6-3.6-1.1-5.4-1.5l-19.2-4.2c-.5-.1-1-.2-1.4-.3-.5-.1-.9-.2-1.4-.3l-6.3-1.4c-8.7-13.3-17.9-26.3-27.6-38.9 1.3-40.4-1.8-78.2-9.4-112.6-15.3-69.7-48-123.9-97.2-161-44.1-33.4-98.1-50.3-160.4-50.3-6.9 0-13.9.2-21 .6-63.4 3.7-132.4 24.1-205.3 60.5-5.9 2.9-11.8 6-17.8 9.2h-2.2c-70 0-138.6 11.1-204.2 33l2.6-5.9c-3.2 1.1-6.3 2.2-9.4 3.4l-133-22s-12-19.5-12.1-19.5c-11-17.6-29.4-29.7-50.7-33.2-4.3-.7-8.8-1.1-13.3-1.1-15.3 0-30.6 4.2-44.2 12.2-17.6 10.3-31 26.2-37.7 44.6-7.7 21.1-6 43.9 4.7 62.5l9.9 17.1-153.7 419-28.8 17c-5.3 3.1-10.2 6.8-14.7 10.9l-1.3-.3c-17.6 10.3-31 26.2-37.7 44.6-7.7 21.1-6 43.8 4.7 62.5.3.4.5.9.7 1.2.1.1.2.3.3.4l65.5 106c4.8 7.7 11 14.4 18.2 19.8 3.4 17.4 7.6 34.7 12.4 51.7-1.6 7.1-3 14.2-4.3 21.1-15.2 80.1-16 152.1-2.3 214 15.3 69.7 48 123.9 97.2 161 44.1 33.4 98.1 50.3 160.4 50.3 6.9 0 14-.2 21-.6 35.6-2.1 73.3-9.5 112.2-22.1 75.5 29.9 155.3 45 237.3 45 64.7 0 128.4-9.5 189.7-28.3 32.3 11.9 66.3 18.3 101.1 18.8h4.8c80.7 0 156.8-31.2 214.3-87.8 57.6-56.7 90-132.4 91.3-213.2.4-26.2-2.5-52.1-8.7-77.4 35.7-81.6 53.7-168.4 53.7-258.4 0-52.1-6.2-103.9-18.5-154.2l1.8-8.4c.4-.6.5-1.5.6-2.3z"
     id="path15244"
     fill="#e8e8e4" /><g
     id="g15658"
     transform="translate(-267.442 -176.6)"><g
       id="g15656"><g
         id="g15372"><g
           id="g15250"><g
             id="g15248"><circle
               cx="1004.3"
               cy="892.9"
               r="592.2"
               id="circle15246"
               fill="#233465" /></g></g><g
           id="g15256"><g
             id="g15254"><path
               class="st2"
               d="M1439.6 408.7c-11.8-53.7-36.2-94.8-72.4-122.2-32.4-24.5-72.8-36.9-120.3-36.9-5.6 0-11.2.2-17 .5-53.6 3.2-113.1 20.9-176.8 52.5 156.7 12.8 296.1 86.5 394.4 197.5.9-33-1.8-63.6-7.9-91.4z"
               id="path15252" /></g></g><g
           id="g15262"><g
             id="g15260"><path
               class="st2"
               d="M449.3 1099.9v.1c-13.4 70.5-14.3 133-2.7 185.7 11.8 53.7 36.2 94.8 72.4 122.2 36.2 27.4 82.4 39.6 137.3 36.4 28.8-1.7 59.4-7.6 91.4-17.6-137-66-244.8-183.2-298.4-326.8z"
               id="path15258" /></g></g><g
           id="g15268"><g
             id="g15266"><path
               class="st3"
               d="M769.6 1436.7c-7.2-3.1-14.4-6.4-21.5-9.8-.2-.1-.5-.1-.8-.1-31.9 10-62.3 15.8-91 17.5-54.9 3.2-101.1-9-137.3-36.4-36.2-27.4-60.6-68.5-72.4-122.2-11.6-52.7-10.7-115.2 2.7-185.7v-.1c7.1-37.5 18.3-78.3 31.9-117.9 1.5-4.4-2.7-10-10-10-5.5 0-7 3.6-8.2 7-10.2 29.6-18.6 58.7-25.2 87.2-2.4 10.3-4.5 20.4-6.5 30.5-13.8 72.9-14.7 137.9-2.5 193 12.8 58 39.4 102.7 79.2 132.8 35.7 27 79.7 40.6 131.2 40.6 5.9 0 12-.2 18.1-.5 35.2-2.1 72.7-10.1 112.1-23.9 1-.4 1-1.6.2-2z"
               id="path15264" /></g></g><g
           id="g15274"><g
             id="g15272"><path
               class="st3"
               d="M1457.4 404.8c-12.8-58-39.4-102.7-79.2-132.8-39.8-30.1-90-43.6-149.3-40-56.4 3.3-118.6 21.8-185 55-8.8 4.4-17.6 9-26.4 13.9 12 .3 23.9.9 35.7 1.8 63.8-31.7 123.2-49.4 176.8-52.5 5.8-.3 11.4-.5 17-.5 47.5 0 87.9 12.4 120.3 36.9 36.2 27.4 60.6 68.5 72.4 122.2 6.1 27.8 8.8 58.4 7.9 91.4-.7 29.5-4.3 61-10.6 94.3-1.3 6.9-2.7 13.9-4.3 20.9l17.2 6.3c1.8-8 3.4-15.9 4.9-23.8 5.1-26.9 8.4-52.7 10-77.3 2.7-42.2.2-81-7.4-115.8z"
               id="path15270" /></g></g><g
           id="g15282"><g
             id="g15280"><g
               id="g15278"><circle
                 cx="701.8"
                 cy="1170.7"
                 r="81.9"
                 id="circle15276"
                 fill="#d32028" /></g></g></g><g
           id="g15290"><g
             id="g15288"><g
               id="g15286"><circle
                 class="st5"
                 cx="903.9"
                 cy="1191.4"
                 r="8.7"
                 id="circle15284" /></g></g></g><g
           id="g15298"><g
             id="g15296"><g
               id="g15294"><circle
                 class="st5"
                 cx="945.7"
                 cy="1328.7"
                 r="4.8"
                 id="circle15292" /></g></g></g><g
           id="g15306"><g
             id="g15304"><g
               id="g15302"><circle
                 class="st5"
                 cx="775.1"
                 cy="1320.9"
                 r="3"
                 id="circle15300" /></g></g></g><g
           id="g15314"><g
             id="g15312"><g
               id="g15310"><circle
                 class="st5"
                 cx="1275.5"
                 cy="463.6"
                 r="8.7"
                 id="circle15308" /></g></g></g><g
           id="g15322"><g
             id="g15320"><g
               id="g15318"><circle
                 class="st5"
                 cx="1243.4"
                 cy="893.8"
                 r="4.8"
                 id="circle15316" /></g></g></g><g
           id="g15330"><g
             id="g15328"><g
               id="g15326"><circle
                 class="st5"
                 cx="1188.6"
                 cy="389.3"
                 r="3"
                 id="circle15324" /></g></g></g><g
           id="g15338"><g
             id="g15336"><g
               id="g15334"><circle
                 class="st5"
                 cx="1499.7"
                 cy="963.3"
                 r="4.8"
                 id="circle15332" /></g></g></g><g
           id="g15346"><g
             id="g15344"><g
               id="g15342"><circle
                 class="st5"
                 cx="1381.4"
                 cy="881.4"
                 r="3"
                 id="circle15340" /></g></g></g><g
           id="g15354"><g
             id="g15352"><g
               id="g15350"><circle
                 class="st5"
                 cx="552.2"
                 cy="1097.7"
                 r="4.8"
                 id="circle15348" /></g></g></g><g
           id="g15362"><g
             id="g15360"><g
               id="g15358"><circle
                 cx="701.8"
                 cy="1170.7"
                 r="72.8"
                 id="circle15356"
                 fill="#ec8a21" /></g></g></g><g
           id="g15370"><g
             id="g15368"><g
               id="g15366"><circle
                 cx="701.8"
                 cy="1170.7"
                 r="63.7"
                 id="circle15364"
                 fill="#f2ca16" /></g></g></g></g><g
         id="g15434"><g
           id="g15432"><defs
             id="defs15375"><circle
               id="SVGID_1_"
               cx="701.3"
               cy="1170.5"
               r="81.9" /></defs><use
             xlink:href="#SVGID_1_"
             id="use15377"
             x="0"
             y="0"
             width="100%"
             height="100%"
             overflow="visible"
             fill="#2fbced" /><clipPath
             id="SVGID_2_"><use
               xlink:href="#SVGID_1_"
               id="use15379"
               x="0"
               y="0"
               width="100%"
               height="100%"
               overflow="visible" /></clipPath><g
             clip-path="url(#SVGID_2_)"
             id="g15430"><g
               id="g15388"><g
                 id="g15386"><g
                   id="g15384"><path
                     class="st9"
                     d="M627.5 1221.4c3.8-1.6 4-2 5.4-4.2 1.5-2.2 4.6-3.2 6.2-4.9 1.6-1.7 2.1-2.8 2.5-5 .3-2.2.2-2.8 2.1-6 1.9-3.1 1.6-3.3 4-5.2 2.4-1.9-.4-3.2 3.5-2.7s7.2 2 12.3 1c5.1-1 5.4-2.8 9.7-3.2 4.3-.4 5.7-.5 9.1-.5 3.4 0 6.3-1.8 8.7-.7 2.4 1.1 3.7 2.9 3.4 6-.3 3.1-3.4 4.5-1.3 6.2 2.1 1.7 1.5 1.9 3.7 3 2.3 1.1 6.1 2.6 8.6 3.3 2.5.7 1.9.3 5.5 2.6 3.5 2.3 4.1 3.4 6.1 2.6 2-.8 3.1.5 5-1.4s.1-2 1.7-4c1.5-2 3-4.4 5.2-3.1 2.2 1.3.3.9 3.4 2.6 3.1 1.7-2.3 1.7 4.3 2 6.6.3 5.2.5 9.4.3s4.1-.2 5.7-.7c1.6-.4.6-3 3.4-1.6s5.1 1.5 7-.5c1.9-2 2-3.8 3.9-5.4 1.9-1.6 2.6-3.4 3.2-5.8.6-2.4.8-4.6.1-6.5-.7-1.9.7-5-2.7-2.8-3.4 2.2-4.8 3.2-7.3 3.2s-4.7-3.3-7.3-.7c-2.6 2.6-3.4.3-6.5-1.4s-.1-5.8-3.4-8.6c-3.3-2.7-4.7-4.3-6.1-4.2-1.4.1-2.9.3-3.8.7-.9.4-3.1.2-3.3 2.2-.2 2-.2 2.3.3 3.4.6 1.1 3.2 1.9 3.5 3 .3 1.1 0 1.6-.3 1.9-.3.3-.7 1-2.2 1.3-1.5.3-1.4 1-1.9 1.6-.6.6-1.6 1-1.9-.6-.3-1.5-1.3-1.2-1.2-2.7.1-1.5-1.6-3-2.6-5.1-1-2.1-1.8-1.9-1.7-4.2 0-2.2-.6-4-2.1-5.3-1.6-1.3-3.2-1.6-4.4-2.7-1.2-1.2-2.8-1.8-3.3-2.2-.5-.4-2.3-3.2-3.6-3.8-1.3-.6-2-1.9-2.6-2.9-.6-1-.5.1-1.7 0s-2.3.5-2.5.9c-.2.4-.2 1.6 0 2.3.2.7 1.7 2.9 3 4.9 1.3 2 3.3 5.8 5.2 6.4 1.9.6 4 .8 5.3 1.8 1.3.9 2.9 1.5 3.2 2.5.3 1 .2 1.7-.3 1.6-.6-.1-1.7-2.1-2.4-2.2-.7-.1-1.2.4-1.5.9-.4.5-.8 1.3-.4 1.7.4.4 1.1.5 1.2 1.6 0 1-.6 2.5-.8 2.9-.2.4-1.3 1.3-1.5 1.4-.3.2-1.6 1.3-1.6.2s.5-2.2.9-2.6c.4-.4.2-1.9-.2-2.8-.5-.9-.9-1.9-1.3-2.3-.4-.4-5-3.4-5.5-3.8-.5-.4-5.1-2.8-6.8-5.3-1.7-2.5-4.4-6.2-5.9-5.7-1.6.5-3.4 2.4-5.9 3.2-2.4.8-6.6-1-8-.5-1.4.5-2.6 1.7-2.8 3.3-.2 1.6-1.4 3.2-2.4 4-1 .7-3.1.7-5.1 3.3-2 2.6-1.4 2.7-2.3 4.8-.9 2.1-1.4 3.9-3.3 5s-4.9 1.8-7.3 1.8c-2.4 0-3.1 1.1-4.9.1-1.9-1-2.8-1.4-4.9-2.8-2.1-1.3-2.7-2.7-2.9-4.9-.2-2.2 2-4.4 1.4-8.5-.6-4.1-.7-5 .3-6.1 1-1.1 6.3-1.5 10.8-.9 4.5.6 8 2.9 9.3-.9 1.3-3.8 2.1-6.4.9-7.8-1.2-1.4-2.9-4.3-5.1-4.6-2.2-.3-4.5-1-3.3-2.2 1.2-1.2 4.3-1 6.1-1.1 1.8-.1 1.4.1 3-1.1 1.6-1.2 3.3-1.5 4.5-2.3 1.2-.9 2.3-1.8 3.7-2.7 1.4-.9 6.7-3.4 8.6-6.4 1.9-3 6.3-3.9 7.9-3.5 1.6.4 2.6-.2 2.9-2.1.2-1.9-1.6-3.2-1.3-4.5.2-1.3-.2-2.9.7-3.6.9-.7 3.7-2.9 4.2-2.4s1.2 1.5.4 2.7c-.9 1.1-2.3 2-1.8 3.3.5 1.3-.4 3.4.6 3.8 1 .3 1.4.5 2.4 1.2s2.2-.5 4-.3c1.8.2 2.3 1.6 9.2.4 6.9-1.2 7.4-.5 9.6-1.9 2.2-1.4 1.1-5 2.2-6.4 1.1-1.3 2.5-2.2 3.5-1.4 1 .9 2.8 1.9 3.8.7s-1-4.2 1.1-5.4c2.1-1.2 2.1.1 5.8-.6 3.7-.7 7.4-1.7 4.6-2.7-2.8-1-4.7-1.7-7.3-1.6-2.6.1-8.9 2-11-1.9-2.1-3.9-2.5-4.8-1.1-6.5 1.4-1.7 3.6-3.9 6.3-5.2 2.6-1.3 35.2-.7 51.8 5.7 16.6 6.4 22 27.1 25.2 30.8 3.3 3.7 5.3 19.7 1.5 21.9-3.8 2.2-5.4 2.7-7.4 4-2 1.3-6.7-.2-4.8 3.1 2 3.4 3.3 5.1 4.9 6.4 1.6 1.3 5.7 2.2 4.6 5.4-1.1 3.2-3.2 4.6.5 6.5 3.6 1.9 4.4 3.5 4.4 3.5s-1.6 13.9-4.8 15.1c-3.2 1.2-3.1 1.5-4.9 2.5-1.8 1-1.8 2-.9 3s2.5 2.6 2.5 3.3c0 .6-18.2 32.7-23.2 35.6-5 2.9-6.5 3.5-6.3 1.8.2-1.7.5-4.9-.4-7.6-.8-2.7-1.4-8.3-2.9-12.7-1.5-4.4-7.7.8-6.5 5.8 1.3 5-.9 2.5.4 9 1.3 6.4.9 6.7 1.1 8.2.2 1.5 1 9.2 1 9.2s-107.1 37.8-116 24.7c-8.9-13.1-12.9-40.8-15.7-46.5-2.8-5.8-5-16.2-5-16.2z"
                     id="path15382" /></g></g></g><g
               id="g15396"><g
                 id="g15394"><g
                   id="g15392"><path
                     class="st9"
                     d="M691.9 1175.2c.4 0 .9 0 1.1 1.2.2 1.2.1 3.1-.1 4-.3.9.2 1.6-.3 1.7-.5.1-1.3-.1-1.6.1-.2.2-1.7.7-1.4-1 .3-1.6.1-1.4.2-2.5.1-1-.7-1.4-.6-2 .2-.4 1.8-1.6 2.7-1.5z"
                     id="path15390" /></g></g></g><g
               id="g15404"><g
                 id="g15402"><g
                   id="g15400"><path
                     class="st9"
                     d="M701 1187.1s.8.8 1.1 1c.3.2 1 .5 1.9.9.8.5 1.7.8 2.2 1.1.5.3.6.3 1.2.3s1-.4 1-.9-.1-2.4.2-2.8c.3-.4.5-.9.4-.9-.1.1-2.2.8-2.7.7-.4 0-1.5 0-1.9-.2-.4-.2-1.2-.6-1.6-.5-.4.1-.2.1-.7.3-.5.3-1.6.3-1.1 1z"
                     id="path15398" /></g></g></g><g
               id="g15412"><g
                 id="g15410"><g
                   id="g15408"><path
                     class="st9"
                     d="M661.2 1117.7c-.1.9 0 2 .7 3.3.7 1.3.7.6 1.1 2.3.4 1.7 1.1 3.1 1.7 3.6.6.5.9.7 2.2 2.5 1.2 1.8 1.1 2.2 2.4 4 1.3 1.8 3.1 2.1 3.1 3.5s1 4.4-1.9 5.3c-2.9.9-3.4 1-4.9 1.4-1.5.4-6 .9-6.8 1.4-.8.5-3.8.6-3.8.6s-.2-.3.8-1.7c1-1.5.4-2.1 2.1-1.9 1.7.2 2.7-.9 2.8-.9 0 0-.4-.1-1.7-.5-1.3-.3-2.5-.7-1.3-1.8 1.2-1.2.3-2.4 1.4-3 1-.6 2.7-.1 2.8-1.6.1-1.5 1.7.3.5-1.8-1.3-2.1-1.3-1.8-2.3-2.8-1-1-1.7-1.3-2-2.4-.3-1.1.4-1.8.1-2.9-.2-1 .1-1.3-.6-2.9-.7-1.6-.4-2.8-.1-3.1.2-.1 3.7-.6 3.7-.6z"
                     id="path15406" /></g></g></g><g
               id="g15420"><g
                 id="g15418"><g
                   id="g15416"><path
                     class="st9"
                     d="M643.8 1141.1c1.2.7 2.5.1 3.3-.5.9-.6 1.1-1.8 2.9-1.9 1.9 0 1.7 1.8 2.8-.1 1.1-1.9.8-5.3.8-5.3s.1-1.7 1.4-1.7c1.3 0 1.1-1.9.2-2.1-.9-.2-2.2-.6-2.9-.3-.7.2-1.2.2-2.8 1.4-1.7 1.2-1.4 2.2-2.2 2.4-.8.2-1.5 1.2-2.2 2.1-.6.8-1.4 2.4-1.7 3.3 0 .9-1.3 1.8.4 2.7z"
                     id="path15414" /></g></g></g><g
               id="g15428"><g
                 id="g15426"><g
                   id="g15424"><path
                     class="st9"
                     d="M687.9 1103.6c-.2 1.4-.7 2.3-.9 2.9-.2.6-1.6-.1-1.9 2.1-.3 2.2-1.4 2.3-.3 3.9 1.1 1.6-.5 2.5.3 3.7.8 1.2 1.8 3.3 2.2 2.9.4-.4 1.7-1.2 3.3-1.1 1.7 0 2.4-2 4.2-2.2 1.8-.2 1.8-1.6 2.7-.9.9.7 1.4 4.1 2.2 5 .8.9 1.3 2.4 2 3.2.7.8-.4 3.6 1.8 3.3 2.2-.4 2-.9 3.4-1.1 1.5-.2 2.4.5 3.2-1.7.8-2.3 1-5 1.2-5.5.2-.6 1.2-2.1 2.4-2.6s1.5-.9.9-2.6c-.6-1.7-2.7-.5-2.6-2.8.1-2.3.3-4.8.3-4.8s.7-1.1 2-2c1.3-.9 4-1 5.1-2 1.1-.9 1-5.6 1.1-6.1.1-.5-15.5.9-15.5.9z"
                     id="path15422" /></g></g></g></g></g></g><g
         id="g15440"><g
           id="g15438"><path
             class="st10"
             d="M471.3 978.9c2 0 3 .8 3.4 1.3-13.9 40.5-25 81.4-32.1 118.5v.1c-13.5 71.4-14.4 134.8-2.6 188.5 12.2 55.3 37.4 97.8 75 126.2 33.6 25.4 75.5 38.3 124.5 38.3 5.7 0 11.5-.2 17.4-.5 28.5-1.7 58.9-7.4 90.4-17.1 1.9.9 3.9 1.8 5.9 2.8-33.6 10.7-65.9 17-96.1 18.8-6 .4-11.9.5-17.7.5-49.9 0-92.7-13.2-127.1-39.2-38.4-29.1-64.2-72.4-76.6-128.8-11.9-54.2-11.1-118.3 2.6-190.3 1.9-9.8 4-20 6.4-30.2 6.5-28.1 15-57.2 25-86.5.4-1.2.7-2 1-2.3 0-.1.2-.1.6-.1m0-6.9c-5.5 0-7 3.6-8.2 7-10.2 29.6-18.6 58.7-25.2 87.2-2.4 10.3-4.5 20.4-6.5 30.5-13.8 72.9-14.7 137.9-2.5 193 12.8 58 39.4 102.7 79.2 132.8 35.7 27 79.7 40.6 131.2 40.6 5.9 0 12-.2 18.1-.5 35.2-2.1 72.7-10.1 112.1-23.9.9-.3.9-1.6.1-2-7.2-3.1-14.4-6.4-21.5-9.8-.1-.1-.3-.1-.5-.1h-.3c-31.9 10-62.3 15.8-91 17.5-5.8.3-11.4.5-17 .5-47.5 0-87.9-12.4-120.3-36.9-36.2-27.4-60.6-68.5-72.4-122.2-11.6-52.7-10.7-115.2 2.7-185.7v-.1c7.1-37.5 18.3-78.3 31.9-117.9 1.6-4.4-2.6-10-9.9-10z"
             id="path15436" /></g></g><g
         id="g15446"><g
           id="g15444"><path
             class="st10"
             d="M1247 238.3c49.9 0 92.7 13.2 127.1 39.2 38.4 29.1 64.2 72.4 76.6 128.8 7.5 34.1 10 72.3 7.3 113.8-1.6 24.3-4.9 50-9.9 76.4-1 5.2-2.1 10.5-3.2 15.9l-4.2-1.5c1.1-5.1 2.1-10.2 3-15.2 6.3-33.5 10-65.6 10.7-95.4.8-33.5-1.9-64.8-8.1-93.1-12.2-55.3-37.4-97.8-75-126.2-33.6-25.4-75.5-38.3-124.5-38.3-5.7 0-11.5.2-17.4.5-54 3.2-113.8 20.8-177.8 52.4-2.9-.2-5.7-.4-8.6-.6 1.3-.6 2.5-1.3 3.8-1.9 65.6-32.7 126.9-51 182.4-54.3 6-.3 12-.5 17.8-.5m0-6.9c-5.9 0-12 .2-18.1.5-56.4 3.3-118.6 21.8-185 55-8.8 4.4-17.6 9-26.4 13.9 12 .3 23.9.9 35.7 1.8 63.8-31.7 123.2-49.4 176.8-52.5 5.8-.3 11.4-.5 17-.5 47.5 0 87.9 12.4 120.3 36.9 36.2 27.4 60.6 68.5 72.4 122.2 6.1 27.8 8.8 58.4 7.9 91.4-.7 29.5-4.3 61-10.6 94.3-1.3 6.9-2.7 13.9-4.3 20.9l17.2 6.3c1.8-8 3.4-15.9 4.9-23.8 5.1-26.9 8.4-52.7 10-77.3 2.7-42.2.2-80.9-7.5-115.8-12.8-58-39.4-102.7-79.2-132.8-35.6-26.9-79.6-40.5-131.1-40.5z"
             id="path15442" /></g></g><g
         id="g15654"><g
           id="g15452"><g
             id="g15450"><path
               transform="rotate(12.258 1293.431 592.502)"
               class="st5"
               id="rect15448"
               d="M1283.9 538h19.3v109h-19.3z" /></g></g><g
           id="g15458"><g
             id="g15456"><path
               transform="rotate(12.258 1315.158 597.225)"
               class="st5"
               id="rect15454"
               d="M1305.7 542.7h19.3v109h-19.3z" /></g></g><g
           id="g15464"><g
             id="g15462"><path
               transform="rotate(12.258 1344.834 603.677)"
               class="st5"
               id="rect15460"
               d="M1335.3 549.1h19.3v109h-19.3z" /></g></g><g
           id="g15470"><g
             id="g15468"><path
               transform="rotate(12.258 1366.56 608.4)"
               class="st5"
               id="rect15466"
               d="M1357.1 553.9h19.3v109h-19.3z" /></g></g><g
           id="g15476"><g
             id="g15474"><path
               transform="rotate(12.258 1512.39 640.475)"
               class="st5"
               id="rect15472"
               d="M1502.9 585.9h19.3v109h-19.3z" /></g></g><g
           id="g15482"><g
             id="g15480"><path
               transform="rotate(12.258 1534.116 645.198)"
               class="st5"
               id="rect15478"
               d="M1524.6 590.6h19.3v109h-19.3z" /></g></g><g
           id="g15488"><g
             id="g15486"><path
               transform="rotate(12.258 1563.792 651.65)"
               class="st5"
               id="rect15484"
               d="M1554.3 597.1h19.3v109h-19.3z" /></g></g><g
           id="g15494"><g
             id="g15492"><path
               transform="rotate(12.258 1585.52 656.374)"
               class="st5"
               id="rect15490"
               d="M1576 601.8h19.3v109H1576z" /></g></g><g
           id="g15500"><g
             id="g15498"><path
               transform="rotate(-167.742 1554.614 799.401)"
               class="st5"
               id="rect15496"
               d="M1544.9 744.9h19.3v109h-19.3z" /></g></g><g
           id="g15506"><g
             id="g15504"><path
               transform="rotate(-167.742 1532.885 794.68)"
               class="st5"
               id="rect15502"
               d="M1523.2 740.2h19.3v109h-19.3z" /></g></g><g
           id="g15512"><g
             id="g15510"><path
               transform="rotate(-167.742 1503.206 788.23)"
               class="st5"
               id="rect15508"
               d="M1493.5 733.7h19.3v109h-19.3z" /></g></g><g
           id="g15518"><g
             id="g15516"><path
               transform="rotate(-167.742 1481.476 783.507)"
               class="st5"
               id="rect15514"
               d="M1471.8 729h19.3v109h-19.3z" /></g></g><g
           id="g15524"><g
             id="g15522"><path
               transform="rotate(-167.742 1335.632 751.441)"
               class="st5"
               id="rect15520"
               d="M1326 697h19.3v109H1326z" /></g></g><g
           id="g15530"><g
             id="g15528"><path
               transform="rotate(-167.742 1313.903 746.719)"
               class="st5"
               id="rect15526"
               d="M1304.2 692.2h19.3v109h-19.3z" /></g></g><g
           id="g15536"><g
             id="g15534"><path
               transform="rotate(-167.742 1284.224 740.269)"
               class="st5"
               id="rect15532"
               d="M1274.6 685.8h19.3v109h-19.3z" /></g></g><g
           id="g15542"><g
             id="g15540"><path
               transform="rotate(-167.742 1262.495 735.547)"
               class="st5"
               id="rect15538"
               d="M1252.8 681.1h19.3v109h-19.3z" /></g></g><g
           id="g15640"><g
             id="g15548"><g
               id="g15546"><path
                 transform="rotate(12.258 1427.329 680.994)"
                 class="st11"
                 id="rect15544"
                 d="M1417.8 648.9h19.3v64.2h-19.3z" /></g></g><g
             id="g15554"><g
               id="g15552"><path
                 transform="rotate(102.263 1424.271 695.787)"
                 class="st11"
                 id="rect15550"
                 d="M1414.6 641.3h19.3v109h-19.3z" /></g></g><g
             id="g15560"><g
               id="g15558"><path
                 transform="rotate(12.258 1420.603 711.93)"
                 class="st11"
                 id="rect15556"
                 d="M1414.3 607.3h13v209.2h-13z" /></g></g><g
             id="g15566"><g
               id="g15564"><path
                 transform="rotate(102.263 1434.788 621.574)"
                 class="st11"
                 id="rect15562"
                 d="M1428.3 597.7h13v47.7h-13z" /></g></g><g
             id="g15572"><g
               id="g15570"><path
                 transform="rotate(12.258 1414.026 742.182)"
                 class="st11"
                 id="rect15568"
                 d="M1404.5 717.1h19.5v50.2h-19.5z" /></g></g><g
             id="g15578"><g
               id="g15576"><path
                 transform="rotate(12.258 1405.472 781.527)"
                 class="st11"
                 id="rect15574"
                 d="M1395.9 771.8h19.5v19.3h-19.5z" /></g></g><g
             id="g15584"><g
               id="g15582"><path
                 transform="rotate(102.263 1401.252 801.684)"
                 class="st11"
                 id="rect15580"
                 d="M1395.8 755.4h11V848h-11z" /></g></g><g
             id="g15590"><g
               id="g15588"><path
                 transform="rotate(102.263 1424.105 695.843)"
                 class="st11"
                 id="rect15586"
                 d="M1417.6 536.7h13v318.4h-13z" /></g></g><g
             id="g15596"><g
               id="g15594"><path
                 transform="rotate(102.263 1291.867 652.674)"
                 class="st11"
                 id="rect15592"
                 d="M1289.7 631.9h4.3v41.6h-4.3z" /></g></g><g
             id="g15602"><g
               id="g15600"><path
                 transform="rotate(102.263 1343.275 663.846)"
                 class="st11"
                 id="rect15598"
                 d="M1341.1 643.1h4.3v41.6h-4.3z" /></g></g><g
             id="g15608"><g
               id="g15606"><path
                 transform="rotate(102.263 1510.847 700.635)"
                 class="st11"
                 id="rect15604"
                 d="M1508.7 679.9h4.3v41.6h-4.3z" /></g></g><g
             id="g15614"><g
               id="g15612"><path
                 transform="rotate(102.263 1562.255 711.808)"
                 class="st11"
                 id="rect15610"
                 d="M1560.1 691h4.3v41.6h-4.3z" /></g></g><g
             id="g15620"><g
               id="g15618"><path
                 transform="rotate(-77.737 1556.347 739.177)"
                 class="st11"
                 id="rect15616"
                 d="M1554.2 718.4h4.3V760h-4.3z" /></g></g><g
             id="g15626"><g
               id="g15624"><path
                 transform="rotate(-77.737 1504.938 728.005)"
                 class="st11"
                 id="rect15622"
                 d="M1502.7 707.2h4.3v41.6h-4.3z" /></g></g><g
             id="g15632"><g
               id="g15630"><path
                 transform="rotate(-77.737 1337.362 691.219)"
                 class="st11"
                 id="rect15628"
                 d="M1335.2 670.5h4.3v41.6h-4.3z" /></g></g><g
             id="g15638"><g
               id="g15636"><path
                 transform="rotate(-77.737 1285.953 680.047)"
                 class="st11"
                 id="rect15634"
                 d="M1283.8 659.3h4.3v41.6h-4.3z" /></g></g></g><g
           id="g15646"><g
             id="g15644"><path
               transform="rotate(-167.742 1390.211 732.697)"
               class="st5"
               id="rect15642"
               d="M1380.5 703.4h19.3V762h-19.3z" /></g></g><g
           id="g15652"><g
             id="g15650"><path
               transform="rotate(-167.742 1439.323 743.37)"
               class="st5"
               id="rect15648"
               d="M1429.7 714.1h19.3v58.6h-19.3z" /></g></g></g></g></g><g
     id="g15668"
     transform="translate(-267.442 -176.6)"><g
       id="g15662"><path
         d="M782.6 1163.5c-3.1-37.4-31-66.8-66.1-73.5 22.7 10.7 39.3 32.9 41.6 59.7 3.4 40-26.4 75.2-66.4 78.6-29.6 2.5-56.5-13.1-69.9-37.6 9.7 38 45.7 64.6 86.2 61.2 45-3.8 78.4-43.4 74.6-88.4z"
         id="path15660"
         fill="#c8bb9a" /></g><g
       id="g15666"><path
         d="M758.1 1149.7c-2.3-26.8-18.8-49-41.6-59.7-3-.6-6-1-9.1-1.2-4.3-.3-8.7-.3-13.2 0-45.1 3.8-78.5 43.4-74.7 88.4.1.6.1 1.3.2 1.9.4 4 1.1 7.8 2.1 11.6 13.4 24.5 40.3 40.1 69.9 37.6 40-3.4 69.8-38.6 66.4-78.6z"
         id="path15664"
         fill="#e2d3a9" /></g></g><g
     id="g15968"
     transform="translate(-267.442 -176.6)"><g
       id="g15966"><g
         id="g15742"><g
           id="g15672"><path
             transform="rotate(12.204 1293.708 592.385)"
             class="st14"
             id="rect15670"
             d="M1284.2 537.8h19.3v109h-19.3z" /></g><g
           id="g15676"><path
             transform="rotate(12.204 1315.44 597.09)"
             class="st14"
             id="rect15674"
             d="M1305.9 542.5h19.3v109h-19.3z" /></g><g
           id="g15680"><path
             transform="rotate(12.204 1345.122 603.515)"
             class="st14"
             id="rect15678"
             d="M1335.6 548.9h19.3v109h-19.3z" /></g><g
           id="g15684"><path
             transform="rotate(12.204 1366.853 608.219)"
             class="st14"
             id="rect15682"
             d="M1357.3 553.6h19.3v109h-19.3z" /></g><g
           id="g15688"><path
             transform="rotate(12.204 1512.713 640.163)"
             class="st14"
             id="rect15686"
             d="M1503.2 585.6h19.3v109h-19.3z" /></g><g
           id="g15692"><path
             transform="rotate(12.204 1534.445 644.868)"
             class="st14"
             id="rect15690"
             d="M1525 590.3h19.3v109H1525z" /></g><g
           id="g15696"><path
             transform="rotate(12.204 1564.127 651.293)"
             class="st14"
             id="rect15694"
             d="M1554.6 596.7h19.3v109h-19.3z" /></g><g
           id="g15700"><path
             transform="rotate(12.204 1585.859 655.998)"
             class="st14"
             id="rect15698"
             d="M1576.4 601.4h19.3v109h-19.3z" /></g><g
           id="g15704"><path
             transform="rotate(-167.796 1555.064 799.003)"
             class="st14"
             id="rect15702"
             d="M1545.4 744.5h19.3v109h-19.3z" /></g><g
           id="g15708"><path
             transform="rotate(-167.796 1533.33 794.3)"
             class="st14"
             id="rect15706"
             d="M1523.7 739.8h19.3v109h-19.3z" /></g><g
           id="g15712"><path
             transform="rotate(-167.796 1503.646 787.878)"
             class="st14"
             id="rect15710"
             d="M1494 733.4h19.3v109H1494z" /></g><g
           id="g15716"><path
             transform="rotate(-167.796 1481.912 783.175)"
             class="st14"
             id="rect15714"
             d="M1472.2 728.7h19.3v109h-19.3z" /></g><g
           id="g15720"><path
             transform="rotate(-167.796 1336.039 751.243)"
             class="st14"
             id="rect15718"
             d="M1326.4 696.8h19.3v109h-19.3z" /></g><g
           id="g15724"><path
             transform="rotate(-167.796 1314.305 746.54)"
             class="st14"
             id="rect15722"
             d="M1304.6 692.1h19.3v109h-19.3z" /></g><g
           id="g15728"><path
             transform="rotate(-167.796 1284.62 740.118)"
             class="st14"
             id="rect15726"
             d="M1275 685.6h19.3v109H1275z" /></g><g
           id="g15732"><path
             transform="rotate(-167.796 1262.887 735.416)"
             class="st14"
             id="rect15730"
             d="M1253.2 680.9h19.3v109h-19.3z" /></g><g
           id="g15736"><path
             transform="rotate(-167.796 1390.601 732.45)"
             class="st14"
             id="rect15734"
             d="M1380.9 703.2h19.3v58.6h-19.3z" /></g><g
           id="g15740"><path
             transform="rotate(-167.796 1439.722 743.077)"
             class="st14"
             id="rect15738"
             d="M1430.1 713.8h19.3v58.6h-19.3z" /></g></g><g
         id="g15816"><g
           id="g15746"><path
             transform="rotate(12.204 1293.902 591.496)"
             class="st15"
             id="rect15744"
             d="M1284.4 546h19.3v90.8h-19.3z" /></g><g
           id="g15750"><path
             transform="rotate(12.204 1315.633 596.2)"
             class="st15"
             id="rect15748"
             d="M1306.1 550.7h19.3v90.8h-19.3z" /></g><g
           id="g15754"><path
             transform="rotate(12.204 1345.316 602.626)"
             class="st15"
             id="rect15752"
             d="M1335.8 557.1h19.3v90.8h-19.3z" /></g><g
           id="g15758"><path
             transform="rotate(12.204 1367.047 607.33)"
             class="st15"
             id="rect15756"
             d="M1357.5 561.8h19.3v90.8h-19.3z" /></g><g
           id="g15762"><path
             transform="rotate(12.204 1512.907 639.275)"
             class="st15"
             id="rect15760"
             d="M1503.4 593.8h19.3v90.8h-19.3z" /></g><g
           id="g15766"><path
             transform="rotate(12.204 1534.639 643.98)"
             class="st15"
             id="rect15764"
             d="M1525.1 598.5h19.3v90.8h-19.3z" /></g><g
           id="g15770"><path
             transform="rotate(12.204 1564.321 650.405)"
             class="st15"
             id="rect15768"
             d="M1554.8 604.9h19.3v90.8h-19.3z" /></g><g
           id="g15774"><path
             transform="rotate(12.204 1586.053 655.11)"
             class="st15"
             id="rect15772"
             d="M1576.6 609.6h19.3v90.8h-19.3z" /></g><g
           id="g15778"><path
             transform="rotate(-167.796 1555.258 798.114)"
             class="st15"
             id="rect15776"
             d="M1545.6 752.7h19.3v90.8h-19.3z" /></g><g
           id="g15782"><path
             transform="rotate(-167.796 1533.524 793.412)"
             class="st15"
             id="rect15780"
             d="M1523.9 748h19.3v90.8h-19.3z" /></g><g
           id="g15786"><path
             transform="rotate(-167.796 1503.84 786.99)"
             class="st15"
             id="rect15784"
             d="M1494.2 741.6h19.3v90.8h-19.3z" /></g><g
           id="g15790"><path
             transform="rotate(-167.796 1482.106 782.287)"
             class="st15"
             id="rect15788"
             d="M1472.4 736.9h19.3v90.8h-19.3z" /></g><g
           id="g15794"><path
             transform="rotate(-167.796 1336.233 750.355)"
             class="st15"
             id="rect15792"
             d="M1326.6 705h19.3v90.8h-19.3z" /></g><g
           id="g15798"><path
             transform="rotate(-167.796 1314.5 745.652)"
             class="st15"
             id="rect15796"
             d="M1304.8 700.3h19.3v90.8h-19.3z" /></g><g
           id="g15802"><path
             transform="rotate(-167.796 1284.815 739.23)"
             class="st15"
             id="rect15800"
             d="M1275.1 693.8h19.3v90.8h-19.3z" /></g><g
           id="g15806"><path
             transform="rotate(-167.796 1263.081 734.527)"
             class="st15"
             id="rect15804"
             d="M1253.4 689.1h19.3v90.8h-19.3z" /></g><g
           id="g15810"><path
             transform="rotate(-167.796 1390.795 731.56)"
             class="st15"
             id="rect15808"
             d="M1381.1 711.4h19.3v40.4h-19.3z" /></g><g
           id="g15814"><path
             transform="rotate(-167.796 1439.916 742.189)"
             class="st15"
             id="rect15812"
             d="M1430.3 722h19.3v40.4h-19.3z" /></g></g><g
         id="g15890"><g
           id="g15820"><path
             transform="rotate(12.204 1293.902 591.496)"
             class="st16"
             id="rect15818"
             d="M1284.4 555.1h19.3v72.6h-19.3z" /></g><g
           id="g15824"><path
             transform="rotate(12.204 1315.633 596.2)"
             class="st16"
             id="rect15822"
             d="M1306.1 559.8h19.3v72.6h-19.3z" /></g><g
           id="g15828"><path
             transform="rotate(12.204 1345.316 602.626)"
             class="st16"
             id="rect15826"
             d="M1335.8 566.2h19.3v72.6h-19.3z" /></g><g
           id="g15832"><path
             transform="rotate(12.204 1367.047 607.33)"
             class="st16"
             id="rect15830"
             d="M1357.5 570.9h19.3v72.6h-19.3z" /></g><g
           id="g15836"><path
             transform="rotate(12.204 1512.907 639.275)"
             class="st16"
             id="rect15834"
             d="M1503.4 602.9h19.3v72.6h-19.3z" /></g><g
           id="g15840"><path
             transform="rotate(12.204 1534.639 643.98)"
             class="st16"
             id="rect15838"
             d="M1525.1 607.6h19.3v72.6h-19.3z" /></g><g
           id="g15844"><path
             transform="rotate(12.204 1564.321 650.405)"
             class="st16"
             id="rect15842"
             d="M1554.8 614h19.3v72.6h-19.3z" /></g><g
           id="g15848"><path
             transform="rotate(12.204 1586.053 655.11)"
             class="st16"
             id="rect15846"
             d="M1576.6 618.7h19.3v72.6h-19.3z" /></g><g
           id="g15852"><path
             transform="rotate(-167.796 1555.258 798.114)"
             class="st16"
             id="rect15850"
             d="M1545.6 761.8h19.3v72.6h-19.3z" /></g><g
           id="g15856"><path
             transform="rotate(-167.796 1533.524 793.412)"
             class="st16"
             id="rect15854"
             d="M1523.9 757.1h19.3v72.6h-19.3z" /></g><g
           id="g15860"><path
             transform="rotate(-167.796 1503.84 786.99)"
             class="st16"
             id="rect15858"
             d="M1494.2 750.7h19.3v72.6h-19.3z" /></g><g
           id="g15864"><path
             transform="rotate(-167.796 1482.106 782.287)"
             class="st16"
             id="rect15862"
             d="M1472.4 746h19.3v72.6h-19.3z" /></g><g
           id="g15868"><path
             transform="rotate(-167.796 1336.233 750.355)"
             class="st16"
             id="rect15866"
             d="M1326.6 714.1h19.3v72.6h-19.3z" /></g><g
           id="g15872"><path
             transform="rotate(-167.796 1314.5 745.652)"
             class="st16"
             id="rect15870"
             d="M1304.8 709.4h19.3V782h-19.3z" /></g><g
           id="g15876"><path
             transform="rotate(-167.796 1284.815 739.23)"
             class="st16"
             id="rect15874"
             d="M1275.1 702.9h19.3v72.6h-19.3z" /></g><g
           id="g15880"><path
             transform="rotate(-167.796 1263.081 734.527)"
             class="st16"
             id="rect15878"
             d="M1253.4 698.2h19.3v72.6h-19.3z" /></g><g
           id="g15884"><path
             class="st16"
             id="polygon15882"
             d="M1402.6 722.8l-18.9-4.1-4.7 21.7 18.9 4.1z" /></g><g
           id="g15888"><path
             class="st16"
             id="polygon15886"
             d="M1451.7 733.4l-18.9-4.1-4.6 21.7 18.9 4.1z" /></g></g><g
         id="g15964"><g
           id="g15894"><path
             class="st5"
             id="polygon15892"
             d="M1278.9 616l18.9 4.1 11.4-53.2-18.9-4.1z" /></g><g
           id="g15898"><path
             class="st5"
             id="polygon15896"
             d="M1300.6 620.7l18.9 4.1 11.4-53.2-18.9-4.1z" /></g><g
           id="g15902"><path
             class="st5"
             id="polygon15900"
             d="M1330.3 627.1l18.9 4.1 11.4-53.2-18.9-4.1z" /></g><g
           id="g15906"><path
             class="st5"
             id="polygon15904"
             d="M1352 631.8l19 4.1 11.4-53.2-18.9-4.1z" /></g><g
           id="g15910"><path
             class="st5"
             id="polygon15908"
             d="M1497.9 663.8l18.9 4 11.4-53.2-18.9-4.1z" /></g><g
           id="g15914"><path
             class="st5"
             id="polygon15912"
             d="M1519.7 668.5l18.9 4 11.4-53.2-18.9-4.1z" /></g><g
           id="g15918"><path
             class="st5"
             id="polygon15916"
             d="M1549.3 674.9l18.9 4.1 11.5-53.3-18.9-4.1z" /></g><g
           id="g15922"><path
             class="st5"
             id="polygon15920"
             d="M1571.1 679.6l18.9 4.1 11.4-53.3-18.9-4z" /></g><g
           id="g15926"><path
             class="st5"
             id="polygon15924"
             d="M1570.4 773.6l-18.9-4.1-11.4 53.2 18.9 4.1z" /></g><g
           id="g15930"><path
             class="st5"
             id="polygon15928"
             d="M1548.7 768.9l-18.9-4.1-11.4 53.2 18.9 4.1z" /></g><g
           id="g15934"><path
             class="st5"
             id="polygon15932"
             d="M1519 762.4l-18.9-4-11.4 53.2 18.9 4.1z" /></g><g
           id="g15938"><path
             class="st5"
             id="polygon15936"
             d="M1497.3 757.7l-18.9-4.1-11.4 53.3 18.9 4.1z" /></g><g
           id="g15942"><path
             class="st5"
             id="polygon15940"
             d="M1351.4 725.8l-18.9-4.1-11.4 53.2 18.9 4.1z" /></g><g
           id="g15946"><path
             class="st5"
             id="polygon15944"
             d="M1329.7 721.1l-18.9-4.1-11.5 53.2 19 4.1z" /></g><g
           id="g15950"><path
             class="st5"
             id="polygon15948"
             d="M1300 714.7l-18.9-4.1-11.4 53.2 18.9 4.1z" /></g><g
           id="g15954"><path
             class="st5"
             id="polygon15952"
             d="M1278.2 710l-18.9-4.1-11.4 53.2 18.9 4.1z" /></g><g
           id="g15958"><path
             class="st5"
             id="polygon15956"
             d="M1400.6 731.6l-18.9-4-2.7 12.8 18.9 4.1z" /></g><g
           id="g15962"><path
             class="st5"
             id="polygon15960"
             d="M1449.8 742.3l-19-4.1-2.6 12.8 18.9 4.1z" /></g></g></g></g><path
     transform="rotate(-.6)"
     class="st17"
     id="rect15970"
     stroke-width="1"
     d="M702.553 246.044h55.298v62.097h-55.298z" /><g
     id="g15990"
     transform="translate(-267.442 -176.6)"><g
       class="st18"
       id="g15988"><g
         id="g15974"><path
           class="st19"
           d="M608.3 266.4l65.3 105.8c.1.2.3.5.4.7l-65.3-105.8c-.1-.2-.3-.5-.4-.7z"
           id="path15972" /></g><g
         id="g15978"><path
           class="st17"
           id="polygon15976"
           d="M720.3 453.5L655 347.7l-46.3-80.6L674 372.9z" /></g><g
         id="g15982"><path
           d="M588.3 253.7c8.6 1.4 16.1 6 20.4 13.5l46.3 80.6c8.5 14.9 1 35.4-16.8 45.9-8.9 5.2-18.7 7-27.4 5.6-8.6-1.4-16.1-6-20.4-13.5l-46.3-80.6c-8.5-14.9-1-35.4 16.8-45.9 9-5.3 18.8-7.1 27.4-5.6z"
           id="path15980"
           fill="#bab0be" /></g><g
         id="g15986"><path
           class="st19"
           d="M656.2 492.2l-65.3-105.8c4.3 7 11.6 11.4 20 12.7 8.6 1.4 18.4-.3 27.4-5.6 17.8-10.5 25.4-31 16.8-45.9l65.3 105.8c8.5 14.9 1 35.4-16.8 45.9-8.9 5.2-18.7 7-27.4 5.6-8.4-1.4-15.7-5.7-20-12.7z"
           id="path15984" /></g></g></g><g
     id="g16052"
     transform="translate(-267.442 -176.6)"><path
       class="st21"
       id="polygon15992"
       d="M463.8 652.2l134-304.7 58.1-14.6 221.3 52.3-78 229.6L648.7 761l-109.4-15.1z" /><g
       class="st18"
       id="g16020"><path
         class="st17"
         d="M1197.4 531.1c1.4-3.9 1-7.7-.8-10.7l-82.3-133.3c1.8 3 2.2 6.8.8 10.7l-29.8 81.2c-1.4 3.9-1 7.7.8 10.7l82.3 133.3c-1.8-3-2.2-6.8-.8-10.7z"
         id="path15994" /><path
         class="st21"
         d="M1025.5 604.2c-6.3-10.2-17.1-17.6-31.2-19.9l-84.2-13.9c-29.1-4.8-61 13.9-71.2 41.9-5.3 14.5-3.8 28.5 2.9 39.4L924.1 785c-6.7-10.9-8.2-25-2.9-39.4 10.2-27.9 42.1-46.7 71.2-41.9l84.2 13.9c14 2.3 24.9 9.7 31.2 19.9z"
         id="path15996" /><path
         class="st17"
         d="M1035.5 620.2c-6.3-10.2-17.1-17.6-31.2-19.9l-84.2-13.9c-29.1-4.8-61 13.9-71.2 41.9-5.3 14.5-3.8 28.5 2.9 39.4L934.1 801c-6.7-10.9-8.2-25-2.9-39.4 10.2-27.9 42.1-46.7 71.2-41.9l84.2 13.9c14 2.3 24.9 9.7 31.2 19.9z"
         id="path15998" /><g
         id="g16002"><path
           class="st17"
           d="M493.8 705.9c8.5 1.4 12.9 9.1 9.9 17.3-3 8.1-12.3 13.6-20.7 12.2-8.5-1.4-12.9-9.2-9.9-17.3 3-8.1 12.3-13.6 20.7-12.2z"
           id="path16000" /></g><path
         class="st22"
         d="M1116.5 498.6l-21.9-3.6c-7.9-1.3-12-8.5-9.2-16.1l29.8-81.2c2.8-7.6-1.4-14.8-9.2-16.1l-510.4-84.5c-7.9-1.3-16.5 3.8-19.3 11.3L396.3 799c-2.8 7.6 1.4 14.7 9.2 16l510.4 84.5c7.9 1.3 16.5-3.8 19.3-11.3L965 807c2.8-7.6 11.4-12.6 19.3-11.3l20.9 3.5c2 .3 4.3-1 5-2.9l108-294.6c.5-1.5-.2-2.8-1.7-3.1zM981 452.8l9.7-26.4c.7-1.8 2.8-3.1 4.7-2.7l25.1 4.2c1.9.3 2.9 2.1 2.2 3.9l-9.7 26.4c-.7 1.8-2.8 3.1-4.7 2.7l-25.1-4.2c-1.9-.4-2.9-2.1-2.2-3.9zM788.4 603L685.7 719.8c-15.3 17.4-39.1 26.5-60.4 22.9l-78-12.9c-3.3-.6-6.5-1.4-9.5-2.5-.4-.1-.8-.3-1.2-.4-.2-.1-.3-.1-.5-.2-9.6-4-20.7-13.9-24.9-22.3l-15.5-31.2-13.7-27.5c-2.5-5.1-2.7-11.2-.5-17.1l18.1-49.2c7.6-20.7 24-38.9 45.9-50.4 6.5-3.4 11.6-9.1 14-15.5l47.8-130.4c6.4-17.3 26.1-28.9 44.1-26L837.6 388c18 3 27.5 19.4 21.1 36.8l-57.6 157.1c-2.7 7.5-7.1 14.7-12.7 21.1zm240.1 40.6c-10.2 27.9-42.1 46.7-71.2 41.9l-84.2-13.9c-29.1-4.8-44.4-31.4-34.1-59.3 10.2-27.9 42.1-46.7 71.2-41.9l84.2 13.9c29.1 4.8 44.3 31.3 34.1 59.3z"
         id="path16004" /><g
         id="g16008"><path
           class="st21"
           d="M1118.1 499.6l82.3 133.3c.3.6.4 1.3.1 2l-82.3-133.3c.3-.7.2-1.4-.1-2z"
           id="path16006" /></g><g
         id="g16012"><path
           class="st17"
           d="M897.8 603c10.1 1.7 15.4 10.9 11.9 20.7-3.6 9.7-14.7 16.3-24.8 14.6-10.1-1.7-15.5-10.9-11.9-20.7 3.5-9.7 14.6-16.2 24.8-14.6z"
           id="path16010" /></g><path
         class="st21"
         d="M1010.2 796.3c-.7 2-3 3.3-5 2.9l-20.9-3.5 82.3 133.3 20.9 3.5c2.1.3 4.3-1 5-2.9l108-294.6-82.3-133.3z"
         id="path16014" /><path
         class="st17"
         d="M984.2 795.7c-7.9-1.3-16.5 3.8-19.3 11.3l-29.8 81.2 82.3 133.3 29.8-81.2c2.8-7.6 11.4-12.6 19.3-11.3z"
         id="path16016" /><path
         class="st21"
         d="M935.2 888.3c-2.8 7.6-11.4 12.6-19.3 11.3l-510.4-84.5c-3.8-.6-6.7-2.6-8.4-5.4L479.4 943c1.7 2.8 4.6 4.8 8.4 5.4l510.4 84.5c7.9 1.3 16.5-3.8 19.3-11.3z"
         id="path16018" /></g><g
       class="st18"
       id="g16050"><g
         id="g16024"><path
           class="st22"
           id="polygon16022"
           d="M1194 745.1l-82.3-133.3 37.9-103.3 82.3 133.3z" /></g><g
         id="g16028"><path
           class="st17"
           id="polygon16026"
           d="M1162.8 830.2l-82.3-133.3 13 2.1 82.3 133.3z" /></g><g
         id="g16032"><path
           class="st22"
           id="polygon16030"
           d="M1178.5 850.8l-82.4-133.3 43.7-119 82.3 133.3z" /></g><g
         id="g16036"><path
           class="st22"
           id="polygon16034"
           d="M1124.9 933.5l-82.3-133.3 37.9-103.3 82.3 133.3z" /></g><g
         id="g16040"><path
           class="st17"
           id="polygon16038"
           d="M1169.6 849.3L1087.2 716l8.9 1.5 82.4 133.3z" /></g><g
         id="g16044"><path
           class="st23"
           id="polygon16042"
           d="M1124.7 614l6.2-17 8.9 1.5-43.7 119-8.9-1.5 6.3-17-13-2.1-37.9 103.3-32-5.3 107-291.7 32 5.3-37.9 103.3z" /></g><g
         id="g16048"><path
           class="st17"
           id="polygon16046"
           d="M1093 928.3l-82.4-133.4 32 5.3 82.3 133.3z" /></g></g></g><g
     id="g16056"
     transform="translate(-267.442 -176.6)"><path
       class="st17"
       d="M982.4 617.1c10.1 1.7 15.4 10.9 11.9 20.7-3.6 9.7-14.7 16.3-24.8 14.6-10.1-1.7-15.5-10.9-11.9-20.7 3.6-9.8 14.7-16.3 24.8-14.6z"
       id="path16054" /></g><g
     id="g16060"
     transform="translate(-267.442 -176.6)"><path
       class="st21"
       d="M928.7 597.5l8.3 13.7c5.1 8.2 6.2 18.8 2.2 29.7-7.7 21-31.7 35.2-53.6 31.5-10.6-1.8-18.7-7.3-23.5-15l-8.3-13.7c4.7 7.7 12.9 13.2 23.5 15 21.9 3.6 45.9-10.5 53.6-31.5 4-10.8 2.9-21.4-2.2-29.7z"
       id="path16058" /></g><g
     id="g16064"
     transform="translate(-267.442 -176.6)"><path
       class="st22"
       d="M905.3 582.6c21.9 3.6 33.4 23.6 25.7 44.7-7.7 21-31.7 35.2-53.6 31.5-21.9-3.6-33.4-23.6-25.7-44.7 7.7-21 31.7-35.2 53.6-31.5zm-20.5 55.7c10.1 1.7 21.2-4.9 24.8-14.6 3.6-9.7-1.7-19-11.9-20.7-10.1-1.7-21.3 4.9-24.8 14.6-3.5 9.8 1.8 19 11.9 20.7"
       id="path16062" /></g><g
     id="g16068"
     transform="translate(-267.442 -176.6)"><path
       class="st22"
       d="M989.9 596.6c21.9 3.6 33.4 23.6 25.7 44.7-7.7 21-31.7 35.2-53.6 31.5-21.9-3.6-33.4-23.6-25.7-44.7 7.7-21 31.7-35.1 53.6-31.5zm-20.4 55.7c10.1 1.7 21.3-4.9 24.8-14.6 3.6-9.7-1.7-19-11.9-20.7-10.1-1.7-21.2 4.9-24.8 14.6-3.6 9.8 1.8 19.1 11.9 20.7"
       id="path16066" /></g><path
     class="st17"
     id="polygon16070"
     transform="translate(-267.442 -176.6)"
     d="M867.3 620.3l6.7 11.1 34.6-21.4-6.3-10.5z" /><g
     id="g16074"
     transform="translate(-267.442 -176.6)"><path
       class="st23"
       d="M891.3 592.3c10.1 1.7 15.4 10.9 11.9 20.7-3.6 9.7-14.7 16.3-24.8 14.6-10.1-1.7-15.5-10.9-11.9-20.7 3.5-9.7 14.6-16.3 24.8-14.6z"
       id="path16072" /></g><path
     class="st17"
     id="polygon16076"
     transform="translate(-267.442 -176.6)"
     d="M951.9 634.3l6.7 11.1 34.7-21.4-6.4-10.5z" /><g
     id="g16080"
     transform="translate(-267.442 -176.6)"><path
       class="st23"
       d="M975.9 606.3c10.1 1.7 15.4 10.9 11.9 20.7-3.6 9.7-14.7 16.3-24.8 14.6-10.1-1.7-15.5-10.9-11.9-20.7 3.6-9.7 14.7-16.2 24.8-14.6z"
       id="path16078" /></g><g
     id="g16084"
     transform="translate(-267.442 -176.6)"><path
       class="st17"
       d="M647.2 677.3c8.4 1.4 12.9 9.1 9.9 17.3-3 8.1-12.3 13.6-20.7 12.2-8.4-1.4-12.9-9.1-9.9-17.2 3-8.2 12.3-13.7 20.7-12.3z"
       id="path16082" /></g><g
     id="g16090"
     transform="translate(-267.442 -176.6)"><path
       class="st22"
       d="M834.4 407.8c7.2 1.2 11 7.8 8.5 14.8L784 583.3c-1.9 5.1-4.8 9.9-8.6 14.2L670.3 716.9c-9.9 11.2-25.1 17-38.9 14.7L561.2 720c-3.2-.5-6.3-1.4-9.3-2.7l-5.5-2.3c-8-3.4-14.7-9.4-19-16.9l-26.6-50.2c2.6 3.1 6.3 5.3 11 6 11.5 1.9 24.2-5.5 28.2-16.6 4.1-11.1-2-21.6-13.5-23.5-8.6-1.4-17.7 2.3-23.5 8.8l12.9-35.2c5.7-15.6 18.2-29.4 34.1-37.7 13.1-6.9 22.7-17.5 27.2-29.7l48.9-133.4c2.5-6.9 10.5-11.6 17.7-10.4zm-197 296.3c7 1.2 14.6-3.4 17.1-10 2.5-6.7-1.2-13-8.2-14.2-7-1.2-14.6 3.3-17.1 10-2.5 6.7 1.2 13.1 8.2 14.2"
       id="path16086" /><path
       d="M838.2 420.8c.7-2 .6-3.9-.2-5.4-.8-1.4-2.4-2.4-4.4-2.7L643 381.1c-.5-.1-1-.1-1.5-.1-4.6 0-9.2 3.2-10.7 7.3L610 445.2 573.4 545c-2.5 6.9 1.8 14.5 9.1 15.8l178 31.4c7.9 1.4 15.9-2.9 18.7-10.5 0-.1 0-.1.1-.2z"
       id="path16088"
       fill="#e3e3e4" /></g><path
     class="st21"
     d="M294.358 544.1c1.1-.2 2.2-.6 3.1-1.1l26.5-13.9c14.9-8.5 18.6-28.3 7.9-41.8-8.6-10.8-23.8-13.7-35.8-6.8l-40.6 21.8c-2.8 1.5-5.9 2.3-9 2.3l-11.6.1c-1.7 0-3.3.5-4.7 1.3l-26.7 15.8c-12.4 7.3-17.3 22.8-11.4 36 6.9 15.3 25.7 21.2 40.1 12.5l34.6-20.9z"
     id="path16092" /><path
     class="st21"
     d="M760.258 469.1c.3-6.7-1.3-13-4.6-18.3l-9.7-15.8c5.1 8.2 6.2 18.8 2.2 29.7-7.7 21-31.7 35.2-53.6 31.5-10.6-1.8-18.7-7.3-23.4-15l9.7 15.8c3.4 5.5 8.5 9.8 15 12.5 26.6 1.5 54.1-15.5 64.4-40.4z"
     id="path16094" /><g
     id="g16118"
     transform="translate(-267.442 -176.6)"><defs
       id="defs16097"><path
         id="SVGID_3_"
         d="M1228.2 356.8l-64.9-21-81.9 41.9 24.4 4c3.4.6 6.1 2.2 7.9 4.5l.9 1.5 11.6 18.4c.1.1.1.2.2.3 1.6 2.9 2 6.6.6 10.3l-8.7 25.9 69.4 114.2 67-12.4 34.7-63.5z" /></defs><clipPath
       id="SVGID_4_"><use
         xlink:href="#SVGID_3_"
         id="use16099"
         x="0"
         y="0"
         width="100%"
         height="100%"
         overflow="visible" /></clipPath><defs
       id="defs16107"><filter
         id="Adobe_OpacityMaskFilter"
         filterUnits="userSpaceOnUse"
         x="1026.6"
         y="349.7"
         width="233.7"
         height="222.5"><feFlood
           result="back"
           id="feFlood16102" /><feBlend
           in="SourceGraphic"
           in2="back"
           mode="normal"
           id="feBlend16104" /></filter></defs><g
       clip-path="url(#SVGID_4_)"
       id="g16116"
       transform="translate(0 2)"><g
         id="g16112"><path
           class="st22"
           d="M1171.1 350.1c8.6 1.4 16.1 6 20.4 13.5 8.5 14.9 1 35.4-16.8 45.9l-96.7 56.9c-8.9 5.2-18.7 7-27.4 5.5-8.6-1.4-16.1-6-20.4-13.5-8.5-14.9-1-35.4 16.8-45.9l96.8-56.9c8.9-5.2 18.7-6.9 27.3-5.5z"
           id="path16110" /></g><path
         d="M1256.8 469.4c-.1-.2-.3-.5-.4-.7l-65.3-105.8c.1.2.3.5.4.7 8.5 14.9 1 35.4-16.8 45.9l-96.7 56.9 65.3 105.8 96.7-56.9c17.8-10.5 25.3-31.1 16.8-45.9z"
         id="path16114"
         fill="#847985" /></g></g><g
     id="g16180"
     transform="translate(-267.442 -176.6)"><defs
       id="defs16155"><path
         id="SVGID_9_"
         d="M418.9 837c-4.5-.7-7.8-3.4-9.2-7l-10.9-18.2c-1.3-1.3-2.3-2.9-2.9-4.8-.7-2.4-.6-5.2.4-8l8.7-23.7-107 56 112.5 180.5 124.7-55.6-71.8-111.9z" /></defs><clipPath
       id="SVGID_10_"><use
         xlink:href="#SVGID_9_"
         id="use16157"
         x="0"
         y="0"
         width="100%"
         height="100%"
         overflow="visible" /></clipPath><g
       clip-path="url(#SVGID_10_)"
       id="g16178"><path
         class="st17"
         d="M483.2 816.1L386.5 873c-8.9 5.2-18.7 7-27.4 5.5-8.4-1.4-15.6-5.7-20-12.7l65.3 105.8c4.3 7 11.6 11.4 20 12.7 8.6 1.4 18.4-.3 27.4-5.5l96.7-56.9z"
         id="path16172" /><g
         id="g16176"><path
           class="st22"
           d="M479.7 756.8c8.6 1.4 16.1 6 20.4 13.5 8.5 14.9 1 35.4-16.8 45.9L386.5 873c-8.9 5.2-18.7 7-27.4 5.5-8.6-1.4-16.1-6-20.4-13.5-8.5-14.9-1-35.4 16.8-45.9l96.8-56.9c8.9-5.1 18.7-6.9 27.4-5.4z"
           id="path16174" /></g></g></g><g
     id="g16440"
     transform="translate(-267.442 -176.6)"><g
       class="st18"
       id="g16438"><g
         id="g16184"><path
           class="st33"
           d="M645.3 384.9c4.4.7 6.7 4.7 5.1 8.9-1.6 4.2-6.3 7-10.7 6.3-4.4-.7-6.7-4.7-5.1-8.9 1.5-4.2 6.3-7.1 10.7-6.3z"
           id="path16182" /></g><g
         id="g16188"><path
           class="st33"
           d="M637.3 406.6c4.4.7 6.7 4.7 5.1 8.9-1.5 4.2-6.3 7-10.7 6.3-4.4-.7-6.7-4.7-5.1-8.9 1.5-4.2 6.3-7 10.7-6.3z"
           id="path16186" /></g><g
         id="g16192"><ellipse
           transform="rotate(-31.697 668.018 396.723)"
           class="st33"
           cx="668"
           cy="396.7"
           rx="8.8"
           ry="7.3"
           id="ellipse16190" /></g><g
         id="g16196"><path
           class="st33"
           d="M629.3 428.4c4.4.7 6.7 4.7 5.1 8.9-1.5 4.2-6.3 7-10.7 6.3-4.4-.7-6.7-4.7-5.1-8.9 1.5-4.2 6.3-7 10.7-6.3z"
           id="path16194" /></g><g
         id="g16200"><path
           class="st33"
           d="M662.8 410.9c4.4.7 6.7 4.7 5.1 8.9-1.5 4.2-6.4 7-10.7 6.3-4.4-.7-6.7-4.7-5.1-8.9 1.5-4.2 6.3-7.1 10.7-6.3z"
           id="path16198" /></g><g
         id="g16204"><ellipse
           transform="rotate(-31.697 693.505 400.942)"
           class="st33"
           cx="693.5"
           cy="400.9"
           rx="8.8"
           ry="7.3"
           id="ellipse16202" /></g><g
         id="g16208"><path
           class="st33"
           d="M621.3 450.2c4.4.7 6.7 4.7 5.1 8.9-1.5 4.2-6.3 7-10.7 6.3-4.4-.7-6.7-4.7-5.1-8.9 1.6-4.2 6.4-7 10.7-6.3z"
           id="path16206" /></g><g
         id="g16212"><ellipse
           transform="rotate(-31.697 652.045 440.278)"
           class="st33"
           cx="652"
           cy="440.3"
           rx="8.8"
           ry="7.3"
           id="ellipse16210" /></g><g
         id="g16216"><path
           class="st33"
           d="M688.3 415.1c4.4.7 6.7 4.7 5.1 8.9-1.5 4.2-6.3 7-10.7 6.3-4.4-.7-6.7-4.7-5.1-8.9 1.5-4.2 6.3-7 10.7-6.3z"
           id="path16214" /></g><g
         id="g16220"><path
           class="st33"
           d="M721.8 397.5c4.4.7 6.7 4.7 5.1 8.9-1.5 4.2-6.3 7-10.7 6.3-4.4-.7-6.7-4.7-5.1-8.9 1.5-4.2 6.3-7 10.7-6.3z"
           id="path16218" /></g><g
         id="g16224"><path
           class="st33"
           d="M613.4 472c4.4.7 6.7 4.7 5.1 8.9-1.5 4.2-6.3 7-10.7 6.3-4.4-.7-6.7-4.7-5.1-8.9 1.5-4.2 6.3-7.1 10.7-6.3z"
           id="path16222" /></g><g
         id="g16228"><path
           class="st33"
           d="M646.8 454.4c4.4.7 6.7 4.7 5.1 8.9-1.5 4.2-6.3 7-10.7 6.3-4.4-.7-6.7-4.7-5.1-8.9 1.5-4.2 6.3-7 10.7-6.3z"
           id="path16226" /></g><g
         id="g16232"><ellipse
           transform="rotate(-31.697 677.532 444.498)"
           class="st33"
           cx="677.5"
           cy="444.5"
           rx="8.8"
           ry="7.3"
           id="ellipse16230" /></g><g
         id="g16236"><path
           class="st33"
           d="M713.8 419.3c4.4.7 6.7 4.7 5.1 8.9-1.5 4.2-6.3 7-10.7 6.3-4.4-.7-6.7-4.7-5.1-8.9 1.5-4.2 6.3-7 10.7-6.3z"
           id="path16234" /></g><g
         id="g16240"><ellipse
           transform="rotate(-31.697 744.497 409.384)"
           class="st33"
           cx="744.5"
           cy="409.4"
           rx="8.8"
           ry="7.3"
           id="ellipse16238" /></g><g
         id="g16244"><path
           class="st33"
           d="M605.4 493.7c4.4.7 6.7 4.7 5.1 8.9-1.5 4.2-6.3 7-10.7 6.3-4.4-.7-6.7-4.7-5.1-8.9 1.5-4.2 6.3-7 10.7-6.3z"
           id="path16242" /></g><g
         id="g16248"><ellipse
           transform="rotate(-31.697 636.078 483.816)"
           class="st33"
           cx="636.1"
           cy="483.8"
           rx="8.8"
           ry="7.3"
           id="ellipse16246" /></g><g
         id="g16252"><path
           class="st33"
           d="M672.3 458.6c4.4.7 6.7 4.7 5.1 8.9-1.5 4.2-6.3 7-10.7 6.3-4.4-.7-6.7-4.7-5.1-8.9 1.5-4.2 6.3-7 10.7-6.3z"
           id="path16250" /></g><g
         id="g16256"><path
           class="st33"
           d="M705.8 441.1c4.4.7 6.7 4.7 5.1 8.9-1.5 4.2-6.3 7-10.7 6.3-4.4-.7-6.7-4.7-5.1-8.9 1.5-4.2 6.3-7 10.7-6.3z"
           id="path16254" /></g><g
         id="g16260"><path
           class="st33"
           d="M739.3 423.5c4.4.7 6.7 4.7 5.1 8.9-1.5 4.2-6.4 7-10.7 6.3-4.4-.7-6.7-4.7-5.1-8.9 1.5-4.2 6.3-7 10.7-6.3z"
           id="path16258" /></g><g
         id="g16264"><ellipse
           transform="rotate(-31.697 769.984 413.604)"
           class="st33"
           cx="770"
           cy="413.6"
           rx="8.8"
           ry="7.3"
           id="ellipse16262" /></g><g
         id="g16268"><path
           class="st33"
           d="M597.4 515.5c4.4.7 6.7 4.7 5.1 8.9-1.5 4.2-6.3 7-10.7 6.3-4.4-.7-6.7-4.7-5.1-8.9 1.5-4.2 6.3-7 10.7-6.3z"
           id="path16266" /></g><g
         id="g16272"><ellipse
           transform="rotate(-31.697 628.091 505.594)"
           class="st33"
           cx="628.1"
           cy="505.6"
           rx="8.8"
           ry="7.3"
           id="ellipse16270" /></g><g
         id="g16276"><ellipse
           transform="rotate(-31.697 661.565 488.036)"
           class="st33"
           cx="661.5"
           cy="488"
           rx="8.8"
           ry="7.3"
           id="ellipse16274" /></g><g
         id="g16280"><path
           class="st33"
           d="M697.8 462.9c4.4.7 6.7 4.7 5.1 8.9-1.5 4.2-6.3 7-10.7 6.3-4.4-.7-6.7-4.7-5.1-8.9 1.5-4.3 6.3-7.1 10.7-6.3z"
           id="path16278" /></g><g
         id="g16284"><ellipse
           transform="rotate(-31.697 728.524 452.94)"
           class="st33"
           cx="728.5"
           cy="452.9"
           rx="8.8"
           ry="7.3"
           id="ellipse16282" /></g><g
         id="g16288"><path
           class="st33"
           d="M764.8 427.7c4.4.7 6.7 4.7 5.1 8.9-1.5 4.2-6.3 7-10.7 6.3-4.4-.7-6.7-4.7-5.1-8.9 1.5-4.2 6.3-7 10.7-6.3z"
           id="path16286" /></g><g
         id="g16292"><path
           class="st33"
           d="M589.4 537.3c4.4.7 6.7 4.7 5.1 8.9-1.5 4.2-6.3 7-10.7 6.3-4.4-.7-6.7-4.7-5.1-8.9 1.5-4.2 6.3-7 10.7-6.3z"
           id="path16290" /></g><g
         id="g16296"><ellipse
           transform="rotate(-31.697 795.471 417.823)"
           class="st33"
           cx="795.4"
           cy="417.8"
           rx="8.8"
           ry="7.3"
           id="ellipse16294" /></g><g
         id="g16300"><ellipse
           transform="rotate(-31.697 620.105 527.372)"
           class="st33"
           cx="620.1"
           cy="527.3"
           rx="8.8"
           ry="7.3"
           id="ellipse16298" /></g><g
         id="g16304"><ellipse
           transform="rotate(-31.697 653.578 509.813)"
           class="st33"
           cx="653.6"
           cy="509.8"
           rx="8.8"
           ry="7.3"
           id="ellipse16302" /></g><g
         id="g16308"><path
           class="st33"
           d="M689.8 484.6c4.4.7 6.7 4.7 5.1 8.9-1.5 4.2-6.3 7-10.7 6.3-4.4-.7-6.7-4.7-5.1-8.9 1.6-4.2 6.4-7 10.7-6.3z"
           id="path16306" /></g><g
         id="g16312"><path
           class="st33"
           d="M723.3 467.1c4.4.7 6.7 4.7 5.1 8.9-1.5 4.2-6.4 7-10.7 6.3-4.4-.7-6.7-4.7-5.1-8.9 1.5-4.2 6.3-7.1 10.7-6.3z"
           id="path16310" /></g><g
         id="g16316"><ellipse
           transform="rotate(-31.697 754.01 457.159)"
           class="st33"
           cx="754"
           cy="457.1"
           rx="8.8"
           ry="7.3"
           id="ellipse16314" /></g><g
         id="g16320"><path
           class="st33"
           d="M790.3 432c4.4.7 6.7 4.7 5.1 8.9-1.5 4.2-6.3 7-10.7 6.3-4.4-.7-6.7-4.7-5.1-8.9 1.5-4.2 6.3-7.1 10.7-6.3z"
           id="path16318" /></g><g
         id="g16324"><ellipse
           transform="rotate(-31.697 612.118 549.15)"
           class="st33"
           cx="612.1"
           cy="549.1"
           rx="8.8"
           ry="7.3"
           id="ellipse16322" /></g><g
         id="g16328"><ellipse
           transform="rotate(-31.697 820.976 422.045)"
           class="st33"
           cx="820.9"
           cy="422"
           rx="8.8"
           ry="7.3"
           id="ellipse16326" /></g><g
         id="g16332"><ellipse
           transform="rotate(-31.697 645.592 531.591)"
           class="st33"
           cx="645.6"
           cy="531.6"
           rx="8.8"
           ry="7.3"
           id="ellipse16330" /></g><g
         id="g16336"><path
           class="st33"
           d="M681.8 506.4c4.4.7 6.7 4.7 5.1 8.9-1.5 4.2-6.3 7-10.7 6.3-4.4-.7-6.7-4.7-5.1-8.9 1.6-4.2 6.4-7 10.7-6.3z"
           id="path16334" /></g><g
         id="g16340"><ellipse
           transform="rotate(-31.697 712.557 496.478)"
           class="st33"
           cx="712.5"
           cy="496.5"
           rx="8.8"
           ry="7.3"
           id="ellipse16338" /></g><g
         id="g16344"><path
           class="st33"
           d="M748.8 471.3c4.4.7 6.7 4.7 5.1 8.9-1.5 4.2-6.3 7-10.7 6.3-4.4-.7-6.7-4.7-5.1-8.9 1.5-4.2 6.3-7 10.7-6.3z"
           id="path16342" /></g><g
         id="g16348"><ellipse
           transform="rotate(-31.697 779.498 461.378)"
           class="st33"
           cx="779.5"
           cy="461.4"
           rx="8.8"
           ry="7.3"
           id="ellipse16346" /></g><g
         id="g16352"><path
           class="st33"
           d="M815.8 436.2c4.4.7 6.7 4.7 5.1 8.9-1.5 4.2-6.4 7-10.7 6.3-4.4-.7-6.7-4.7-5.1-8.9 1.5-4.2 6.3-7 10.7-6.3z"
           id="path16350" /></g><g
         id="g16356"><ellipse
           transform="rotate(-31.697 637.605 553.369)"
           class="st33"
           cx="637.6"
           cy="553.3"
           rx="8.8"
           ry="7.3"
           id="ellipse16354" /></g><g
         id="g16360"><path
           class="st33"
           d="M673.8 528.2c4.4.7 6.7 4.7 5.1 8.9-1.5 4.2-6.3 7-10.7 6.3-4.4-.7-6.7-4.7-5.1-8.9 1.6-4.2 6.4-7.1 10.7-6.3z"
           id="path16358" /></g><g
         id="g16364"><ellipse
           transform="rotate(-31.697 704.57 518.255)"
           class="st33"
           cx="704.5"
           cy="518.2"
           rx="8.8"
           ry="7.3"
           id="ellipse16362" /></g><g
         id="g16368"><ellipse
           transform="rotate(-31.697 738.044 500.697)"
           class="st33"
           cx="738"
           cy="500.7"
           rx="8.8"
           ry="7.3"
           id="ellipse16366" /></g><g
         id="g16372"><path
           class="st33"
           d="M774.3 475.5c4.4.7 6.7 4.7 5.1 8.9-1.5 4.2-6.3 7-10.7 6.3-4.4-.7-6.7-4.7-5.1-8.9 1.5-4.2 6.3-7 10.7-6.3z"
           id="path16370" /></g><g
         id="g16376"><ellipse
           transform="rotate(-31.697 805.003 465.6)"
           class="st33"
           cx="805"
           cy="465.6"
           rx="8.8"
           ry="7.3"
           id="ellipse16374" /></g><g
         id="g16380"><path
           class="st33"
           d="M665.9 549.9c4.4.7 6.7 4.7 5.1 8.9-1.5 4.2-6.3 7-10.7 6.3-4.4-.7-6.7-4.7-5.1-8.9 1.5-4.2 6.3-7 10.7-6.3z"
           id="path16378" /></g><g
         id="g16384"><ellipse
           transform="rotate(-31.697 696.584 540.033)"
           class="st33"
           cx="696.6"
           cy="540"
           rx="8.8"
           ry="7.3"
           id="ellipse16382" /></g><g
         id="g16388"><ellipse
           transform="rotate(-31.697 730.058 522.475)"
           class="st33"
           cx="730"
           cy="522.5"
           rx="8.8"
           ry="7.3"
           id="ellipse16386" /></g><g
         id="g16392"><ellipse
           transform="rotate(-31.697 763.531 504.916)"
           class="st33"
           cx="763.5"
           cy="504.9"
           rx="8.8"
           ry="7.3"
           id="ellipse16390" /></g><g
         id="g16396"><path
           class="st33"
           d="M799.8 479.7c4.4.7 6.7 4.7 5.1 8.9-1.5 4.2-6.3 7-10.7 6.3-4.4-.7-6.7-4.7-5.1-8.9 1.5-4.2 6.3-7 10.7-6.3z"
           id="path16394" /></g><g
         id="g16400"><ellipse
           transform="rotate(-31.697 688.598 561.81)"
           class="st33"
           cx="688.6"
           cy="561.8"
           rx="8.8"
           ry="7.3"
           id="ellipse16398" /></g><g
         id="g16404"><ellipse
           transform="rotate(-31.697 722.071 544.252)"
           class="st33"
           cx="722"
           cy="544.2"
           rx="8.8"
           ry="7.3"
           id="ellipse16402" /></g><g
         id="g16408"><ellipse
           transform="rotate(-31.697 755.545 526.694)"
           class="st33"
           cx="755.5"
           cy="526.7"
           rx="8.8"
           ry="7.3"
           id="ellipse16406" /></g><g
         id="g16412"><ellipse
           transform="rotate(-31.697 789.036 509.139)"
           class="st33"
           cx="789"
           cy="509.1"
           rx="8.8"
           ry="7.3"
           id="ellipse16410" /></g><g
         id="g16416"><ellipse
           transform="rotate(-31.697 714.084 566.03)"
           class="st33"
           cx="714.1"
           cy="566"
           rx="8.8"
           ry="7.3"
           id="ellipse16414" /></g><g
         id="g16420"><ellipse
           transform="rotate(-31.697 747.558 548.472)"
           class="st33"
           cx="747.5"
           cy="548.4"
           rx="8.8"
           ry="7.3"
           id="ellipse16418" /></g><g
         id="g16424"><ellipse
           transform="rotate(-31.697 781.05 530.917)"
           class="st33"
           cx="781"
           cy="530.9"
           rx="8.8"
           ry="7.3"
           id="ellipse16422" /></g><g
         id="g16428"><ellipse
           transform="rotate(-31.697 739.572 570.25)"
           class="st33"
           cx="739.5"
           cy="570.2"
           rx="8.8"
           ry="7.3"
           id="ellipse16426" /></g><g
         id="g16432"><ellipse
           transform="rotate(-31.697 773.063 552.694)"
           class="st33"
           cx="773"
           cy="552.7"
           rx="8.8"
           ry="7.3"
           id="ellipse16430" /></g><g
         id="g16436"><ellipse
           transform="rotate(-31.697 765.077 574.472)"
           class="st33"
           cx="765"
           cy="574.4"
           rx="8.8"
           ry="7.3"
           id="ellipse16434" /></g></g></g><path
     class="st17"
     d="M331.358 508.8c1.2-6.2-.4-12.6-4.4-17.6-4.2-5.2-10.5-8.2-17.2-8.1-3.7 0-7.3 1-10.7 3l-40.6 21.8c-1.4.7-2.8 1.2-4.3 1.6-4.6 1.3-6.7 6.7-4.4 10.9.6 1.1 1 1.8 1.3 2.2.9 1.4 5.1 11.4 15.6 18.2 1.7 1.1 3.7 1.5 5.6 1.1l21-4c.5-.1 1-.3 1.4-.5l26.3-13.9c5.4-3.1 9.2-8.5 10.4-14.7z"
     id="path16442" /><path
     class="st22"
     id="polygon16444"
     transform="translate(-267.442 -176.6)"
     d="M508.6 607.4l43.4-4.8-1.7 39.8-26.3 20.4-12.8 4.6-15.2-28.6z" /><g
     id="g16448"
     transform="translate(-267.442 -176.6)"><path
       d="M531.3 622.6l6.3 10c1.9 3 2.3 7 .8 11-2.9 7.8-11.8 13.1-19.9 11.7-2.4-.4-4.4-1.3-6-2.6-1.1-.8-2-1.8-2.7-3l-6.3-10c.7 1.1 1.6 2.1 2.7 3 1.6 1.3 3.7 2.2 6 2.6 8.1 1.3 17-3.9 19.9-11.7 1.5-4 1.1-7.9-.8-11z"
       id="path16446"
       fill="#8e1832" /></g><g
     id="g16452"
     transform="translate(-267.442 -176.6)"><path
       d="M500.3 644.2c2.3 1.8 5.1 3 8.4 3.6 11.3 1.9 23.6-5.4 27.6-16.2 4-10.8-1.9-21.1-13.2-23-7.6-1.3-15.6 1.6-21.3 6.9-1.4 1.3-2.7 2.8-3.7 4.3-1.1 1.6-1.9 3.2-2.6 5-.6 1.8-1 3.5-1.2 5.2-.4 5.7 1.8 10.8 6 14.2z"
       id="path16450"
       fill="#dd0d2a" /></g><path
     class="st22"
     d="M236.358 546.6c-3 8.1-12.3 13.6-20.7 12.2-8.5-1.4-12.9-9.2-9.9-17.3 3-8.1 12.3-13.6 20.7-12.2 8.4 1.4 12.8 9.2 9.9 17.3z"
     id="path16454" /><path
     class="st17"
     id="polygon16456"
     transform="translate(-267.442 -176.6)"
     d="M565 933l-75.8-12.5-27.2-44.6 75.9 12.6z" /><path
     class="st17"
     id="polygon16458"
     transform="translate(-267.442 -176.6)"
     d="M650.5 947.2l-75.9-12.6-27.1-44.5 75.8 12.5z" /><path
     class="st17"
     id="polygon16460"
     transform="translate(-267.442 -176.6)"
     d="M735.9 961.3L660 948.8l-26.7-43.9 75.9 12.6z" /><g
     id="g16468"
     transform="translate(-267.442 -176.6)"><g
       id="g16466"><g
         id="g16464"><path
           id="polygon16462"
           fill="#cfc6d5"
           d="M510.6 970.2l-75.6-12 27-82.3 75.9 12.6z" /></g></g></g><g
     id="g16476"
     transform="translate(-267.442 -176.6)"><g
       id="g16474"><g
         id="g16472"><path
           id="polygon16470"
           fill="#9e94a2"
           d="M525.2 987.4l-14.6-17.2-75.6-12 11 18z" /></g></g></g><g
     id="g16484"
     transform="translate(-267.442 -176.6)"><g
       id="g16482"><g
         id="g16480"><path
           id="polygon16478"
           fill="#756b77"
           d="M525.2 987.4l-14.6-17.2 27.3-81.7 12.3 20.2z" /></g></g></g><g
     id="g16764"
     transform="translate(-267.442 -176.6)"><g
       id="g16520"><g
         id="g16508"><g
           id="g16500"><g
             id="g16498"><defs
               id="defs16491"><circle
                 id="SVGID_12_"
                 cx="1294.6"
                 cy="1219.3"
                 r="256.2" /></defs><use
               xlink:href="#SVGID_12_"
               id="use16493"
               x="0"
               y="0"
               width="100%"
               height="100%"
               overflow="visible"
               fill="#df3a8c" /><clipPath
               id="SVGID_13_"><use
                 xlink:href="#SVGID_12_"
                 id="use16495"
                 x="0"
                 y="0"
                 width="100%"
                 height="100%"
                 overflow="visible" /></clipPath></g></g><g
           id="g16506"><g
             id="g16504"><path
               d="M1551.1 1197.8c-9.9-117.2-97.1-209.3-207.1-230.5 71.3 33.6 123.2 103.1 130.3 187.2 10.6 125.5-82.6 235.8-208.1 246.4-92.7 7.8-177.1-41.1-219.2-117.7 30.5 119.2 143.4 202.4 270 191.8 141.2-11.8 246-136 234.1-277.2z"
               id="path16502"
               fill="#cc378b" /></g></g></g><g
         id="g16518"><g
           id="g16512"><path
             class="st40"
             d="M1221.3 1317.1c-20.8 0-46-5.3-46-5.3-3.2-.3-5.1-2.1-5.1-5.1v-23.8c0-2.9 2.1-4.3 5.1-4 0 0 28.3 4.8 45.2 4.8 19.5 0 27.3-6.9 27.3-20.3v-9.9c0-15-10.2-20.3-28.3-20.3h-28.1c-2.9 0-5.1-2.1-5.1-5.1v-23.3c0-2.9 2.1-5.1 5.1-5.1h22.7c20.3 0 28.3-6.4 28.3-21.4v-5.6c0-11.8-5.3-17.4-24.3-17.4-17.1 0-42.8 4.5-42.8 4.5-2.9.3-5.1-1.1-5.1-4v-23.5c0-2.9 1.9-4.8 5.1-5.1 0 0 22.7-5.3 44.6-5.3 35.5 0 58.5 11.2 58.5 48.4v7.2c0 17.9-8 29.4-20.3 36.6 15.2 6.7 25.7 19 25.7 39.8v11.5c0 39.4-26.4 51.7-62.5 51.7z"
             id="path16510" /></g><g
           id="g16516"><path
             class="st40"
             d="M1362.7 1317.1c-39 0-57.5-22.2-57.5-61.5v-72.2c0-39.3 18.4-61.5 57.5-61.5 39 0 57.5 22.2 57.5 61.5v72.2c-.1 39.3-18.5 61.5-57.5 61.5zm21.4-132.3c0-19.2-5.3-29.4-21.4-29.4-16 0-21.4 10.2-21.4 29.4v69.5c0 19.2 5.3 29.4 21.4 29.4 16 0 21.4-10.2 21.4-29.4z"
             id="path16514" /></g></g></g><g
       id="g16762"><g
         id="g16524"><path
           class="st40"
           d="M1390.2 1030.3c3 1.5 6 3.1 8.8 4.7.3.2.6.3.9.5l17.9-31.4v-.1l-1.1-.6c-3.4-1.9-6.9-3.8-10.4-5.5l-16.1 32.4z"
           id="path16522" /></g><g
         id="g16528"><path
           class="st40"
           d="M1389.2 1029.8c0 .1 0 .1 0 0 .1.1.1 0 .1 0l16.1-32.4h-.1l-16.1 32.4z"
           id="path16526" /></g><g
         id="g16532"><path
           class="st40"
           d="M1369.9 1021.4c3.1 1.2 6.2 2.5 9.3 3.8.4.2.7.3 1 .4l14.5-33.1c-.4-.2-.8-.3-1.2-.5-3.6-1.5-7.3-3-10.9-4.4h-.1l-12.6 33.8z"
           id="path16530" /></g><g
         id="g16536"><path
           class="st40"
           d="M1408.6 1040.7s0 .1 0 0c0 .1 0 .1 0 0 .1.1.1 0 .1 0l19.4-30.5h-.1l-19.4 30.5z"
           id="path16534" /></g><g
         id="g16540"><path
           class="st40"
           d="M1426.7 1053.6s0 .1 0 0c0 .1 0 .1 0 0 .1.1.1.1.1 0l22.5-28.3h-.1l-22.5 28.3z"
           id="path16538" /></g><g
         id="g16544"><path
           class="st40"
           d="M1409.5 1041.3s0 .1 0 0c2.8 1.8 5.6 3.7 8.3 5.6l.9.6 21.1-29.3v-.1c-.4-.3-.7-.5-1.1-.7-3.2-2.2-6.4-4.5-9.7-6.6l-19.5 30.5z"
           id="path16542" /></g><g
         id="g16548"><path
           class="st40"
           d="M1368.8 1021c.1 0 .1 0 0 0 .1.1.1 0 .1 0l12.6-33.9v-.1h-.1l-12.6 34z"
           id="path16546" /></g><g
         id="g16552"><path
           class="st40"
           d="M1304.8 1430.9c-3.1.1-6.3.2-9.5.2h-.6s-.1 0-.1.1v26.4l-.1 9.7v.1h.7c3.7 0 7.4-.1 11.2-.2 0 0 .1 0 .1-.1l-1.7-36.2c0 .1 0 0 0 0z"
           id="path16550" /></g><g
         id="g16556"><path
           class="st40"
           d="M1305.9 1430.9s-.1 0 0 0l1.7 36.2s0 .1.1.1c0 0 .1 0 .1-.1l-1.9-36.2z"
           id="path16554" /></g><g
         id="g16560"><path
           class="st40"
           d="M1303.6 1008c.1 0 .1 0 0 0l1.5-36.2h-.1l-1.4 36.2z"
           id="path16558" /></g><g
         id="g16564"><path
           class="st40"
           d="M1347.6 1014.4c.1 0 .1 0 0 0l9-35.1v-.1h-.1l-8.9 35.2z"
           id="path16562" /></g><g
         id="g16568"><path
           class="st40"
           d="M1348.7 1014.7c3.3.9 6.5 1.8 9.7 2.8l.4.1c.2.1.4.1.7.2h.1l11-34.5c-.4-.1-.8-.3-1.2-.4-3.8-1.2-7.6-2.2-11.3-3.2h-.1l-9.3 35c-.1-.1-.1-.1 0 0z"
           id="path16566" /></g><g
         id="g16572"><path
           class="st40"
           d="M1427.6 1054.4c2.6 2.1 5.2 4.2 7.7 6.4l.2.2.6.6 24.1-27-1-.9c-2.9-2.6-5.9-5.1-9-7.6h-.1l-22.5 28.3c-.1-.1-.1-.1 0 0z"
           id="path16570" /></g><g
         id="g16576"><path
           class="st40"
           d="M1325.8 1010.1s.1 0 0 0l5.2-35.8v-.1s-.1 0-.1.1l-5.1 35.8c-.1-.1 0 0 0 0z"
           id="path16574" /></g><g
         id="g16580"><path
           class="st40"
           d="M1444.2 1069.2c2.3 2.3 4.7 4.8 7 7.2.3.3.5.5.7.8l26.8-24.3-.3-.3c-.2-.2-.4-.4-.6-.7-2.6-2.9-5.4-5.7-8.1-8.5h-.1l-25.4 25.8c0-.1 0 0 0 0z"
           id="path16578" /></g><g
         id="g16584"><path
           class="st40"
           d="M1499.6 1164.4c.9 3.2 1.6 6.5 2.4 9.7.1.3.1.6.2.9v.1h.1l35.4-7.5s.1 0 0-.1c0-.2-.1-.5-.2-.7l-.1-.5c-.8-3.8-1.8-7.6-2.8-11.4l-35 9.5z"
           id="path16582" /></g><g
         id="g16588"><path
           class="st40"
           d="M1499.3 1163.3c0 .1 0 .1 0 0 .1.1.1.1 0 0l34.9-9.5h-.1l-34.8 9.5z"
           id="path16586" /></g><g
         id="g16592"><path
           class="st40"
           d="M1443.4 1068.4c.1.1.1 0 .1 0l25.3-25.8h-.1l-25.3 25.8c0-.1 0 0 0 0z"
           id="path16590" /></g><g
         id="g16596"><path
           class="st40"
           d="M1506.5 1207.2c0 .1 0 .1 0 0l36.2-2v-.1l-36.2 2.1z"
           id="path16594" /></g><g
         id="g16600"><path
           class="st40"
           d="M1504.1 1185.1l35.7-5.8s.1 0 .1-.1c0 0 0-.1-.1 0l-35.7 5.9c0-.1 0 0 0 0z"
           id="path16598" /></g><g
         id="g16604"><path
           class="st40"
           d="M1492.3 1142.2s0 .1 0 0c0 .1.1.1 0 0l33.7-13.2h-.1l-33.6 13.2c0-.1 0 0 0 0z"
           id="path16602" /></g><g
         id="g16608"><path
           class="st40"
           d="M1504.2 1186.2c.5 3.3 1 6.7 1.3 9.9 0 .4.1.7.1 1.1l36-3.8c0-.2 0-.4-.1-.7 0-.2 0-.4-.1-.6-.4-3.9-.9-7.8-1.6-11.6h-.1l-35.5 5.7c.1-.1 0 0 0 0z"
           id="path16606" /></g><g
         id="g16612"><path
           class="st40"
           d="M1492.7 1143.2c1.2 3.2 2.3 6.3 3.4 9.5.1.4.2.7.4 1.1l34.4-11.2v-.1c-.1-.2-.1-.4-.2-.5-.1-.2-.1-.5-.2-.7-1.2-3.7-2.6-7.5-4-11.1h-.1l-33.7 13z"
           id="path16610" /></g><g
         id="g16616"><path
           class="st40"
           d="M1483.6 1122.9c1.5 3 3 6 4.4 9 .1.3.3.7.5 1l33-14.8v-.1c-.2-.4-.4-.8-.5-1.2-1.6-3.6-3.3-7.1-5.1-10.6h-.1l-32.2 16.7c0-.1-.1 0 0 0z"
           id="path16614" /></g><g
         id="g16620"><path
           class="st40"
           d="M1315.9 1008.9s0-.1 0 0l3.5-36c-.4 0-.8-.1-1.3-.1-3.8-.4-7.8-.6-11.7-.8-.1 0-.1 0-.1.1l-1.6 36.1c3.4.1 6.7.4 10 .7.4-.1.8-.1 1.2 0z"
           id="path16618" /></g><g
         id="g16624"><path
           class="st40"
           d="M1459.2 1085.7c2.1 2.6 4.2 5.3 6.2 7.9.2.3.4.6.7.9l29.2-21.4-.1-.1c-.2-.3-.4-.6-.7-.9-2.3-3.1-4.7-6.2-7.2-9.3l-28.1 22.9c-.1-.1-.1 0 0 0z"
           id="path16622" /></g><g
         id="g16628"><path
           class="st40"
           d="M1458.4 1084.8s.1 0 0 0c.1 0 .1 0 0 0 .1 0 .1 0 0 0l28-23h-.1l-27.9 23c.1 0 0 0 0 0z"
           id="path16626" /></g><g
         id="g16632"><path
           class="st40"
           d="M1483.1 1121.9s0 .1 0 0c0 .1 0 0 0 0l32.1-16.7v-.1h-.1l-32 16.8c-.1 0-.1 0 0 0z"
           id="path16630" /></g><g
         id="g16636"><path
           class="st40"
           d="M1472.3 1103.6c1.8 2.8 3.6 5.7 5.3 8.6.2.3.4.6.6 1l31.2-18.2v-.1c-.2-.4-.4-.7-.7-1.1-2-3.3-4.1-6.7-6.2-10h-.1l-30.1 19.8z"
           id="path16634" /></g><g
         id="g16640"><path
           class="st40"
           d="M1471.7 1102.7c.1.1.1.1 0 0 .1.1.1 0 0 0l30.2-19.9v-.1h-.1l-30.1 20c0-.1 0 0 0 0z"
           id="path16638" /></g><g
         id="g16644"><path
           class="st40"
           d="M1409.8 1397.5c-.1 0-.1 0 0 0-2.9 1.8-5.7 3.6-8.6 5.2-.3.2-.6.4-1 .6l18 31.4c.4-.2.8-.4 1.1-.7 3.3-1.9 6.7-4 10-6.1v-.1l-19.5-30.3z"
           id="path16642" /></g><g
         id="g16648"><path
           class="st40"
           d="M1492.8 1295.7c-.1 0-.1 0 0 0l-3.9 9.3-.3.6-.2.4v.1l33 14.8c.1-.3.3-.6.4-.9l.1-.2c1.6-3.5 3.1-7.2 4.5-10.8v-.1z"
           id="path16646" /></g><g
         id="g16652"><path
           class="st40"
           d="M1484.2 1314.9c-.1.1-.1.1 0 0l-.1.1 32.3 16.3z"
           id="path16650" /></g><g
         id="g16656"><path
           class="st40"
           d="M1493.2 1294.6s-.1 0 0 0c-.1.1-.1.1 0 .1l33.8 12.8h.1v-.1z"
           id="path16654" /></g><g
         id="g16660"><path
           class="st40"
           d="M1472.5 1335.1s0 .1 0 0c-1.9 2.8-3.8 5.6-5.8 8.3-.2.3-.4.6-.7.9v.1l29.2 21.3c.2-.3.4-.6.7-.9l.1-.1c2.3-3.2 4.5-6.4 6.7-9.7v-.1z"
           id="path16658" /></g><g
         id="g16664"><path
           class="st40"
           d="M1499.7 1274.5s-.1 0 0 0c-.9 3.2-1.9 6.5-2.9 9.6-.1.2-.1.4-.2.5-.1.2-.1.4-.2.5l34.4 11.2v-.1c.1-.4.3-.8.4-1.1 1.2-3.7 2.3-7.5 3.3-11.3v-.1z"
           id="path16662" /></g><g
         id="g16668"><path
           class="st40"
           d="M1483.7 1315.9s-.1 0 0 0c-1.6 3-3.2 5.9-4.8 8.8-.1.1-.2.3-.2.4l-.3.6 31.3 18.2c.1-.2.2-.3.3-.5.1-.2.2-.4.4-.6 1.9-3.4 3.8-6.8 5.6-10.3z"
           id="path16666" /></g><g
         id="g16672"><path
           class="st40"
           d="M1473.2 1334.2c-.1 0-.1 0 0 0-.1 0-.1.1 0 0l-.1.1 30.4 19.6z"
           id="path16670" /></g><g
         id="g16676"><path
           class="st40"
           d="M1543.1 1218.2c0-4-.1-7.9-.3-11.7h-.1l-36.1 1.9c.2 3.3.3 6.7.3 10v1.1s0 .1.1.1h36.2s.1 0 .1-.1c-.2-.5-.2-.9-.2-1.3z"
           id="path16674" /></g><g
         id="g16680"><path
           class="st40"
           d="M1506.6 1230.6s-.1 0 0 0c-.2 3.3-.5 6.7-.8 10.1 0 .4-.1.7-.1 1.1 0 0 0 .1.1.1l36 3.7h.1v-.1c0-.4.1-.8.1-1.2.4-3.9.7-7.8.9-11.7 0 0 0-.1-.1-.1z"
           id="path16678" /></g><g
         id="g16684"><path
           class="st40"
           d="M1506.7 1229.5c-.1 0-.1 0 0 0-.1 0-.1 0 0 0-.1.1 0 .1 0 .1l36.1 1.7h.1s0-.1-.1-.1z"
           id="path16682" /></g><g
         id="g16688"><path
           class="st40"
           d="M1500 1273.4c-.1 0-.1 0 0 0-.1.1-.1.1 0 .1l35 9.2h.1v-.1z"
           id="path16686" /></g><g
         id="g16692"><path
           class="st40"
           d="M1460.1 1352.3c0-.1 0-.1 0 0-.1 0-.1 0 0 0l28.1 22.8z"
           id="path16690" /></g><g
         id="g16696"><path
           class="st40"
           d="M1504.5 1251.6c-.1 0-.1 0 0 0-.1.1 0 .1 0 .1l35.7 5.5h.1v-.1z"
           id="path16694" /></g><g
         id="g16700"><path
           class="st40"
           d="M1540 1258.4l-35.7-5.6s-.1 0-.1.1c-.5 3.3-1.1 6.6-1.8 9.8l-.2 1.1v.1l35.4 7.5c.1-.4.2-.8.3-1.3.8-3.9 1.6-7.8 2.1-11.7.1 0 .1 0 0 0z"
           id="path16698" /></g><g
         id="g16704"><path
           class="st40"
           d="M1390.4 1408.6c-3 1.5-6.1 3-9.1 4.3-.2.1-.5.2-.7.3l-.3.1v.1l14.5 33.1h.1c.3-.1.7-.3 1-.4l.2-.1c3.5-1.6 7.1-3.3 10.6-5.1l-16.3-32.3z"
           id="path16702" /></g><g
         id="g16708"><path
           class="st40"
           d="M1370 1417.6c-3.1 1.2-6.3 2.3-9.5 3.3-.2.1-.4.1-.6.2-.2 0-.3.1-.5.2v.1l11 34.5 1.3-.4c3.7-1.2 7.4-2.5 11.1-3.9l-12.8-34z"
           id="path16706" /></g><g
         id="g16712"><path
           class="st40"
           d="M1326.9 1428.8c-3.3.5-6.6.9-9.9 1.3h-.5c-.2 0-.4 0-.6.1l3.5 36s0 .1.1.1c.4 0 .9-.1 1.3-.1 3.9-.4 7.8-.9 11.6-1.5l-5.5-35.9c.1 0 .1 0 0 0z"
           id="path16710" /></g><g
         id="g16716"><path
           class="st40"
           d="M1349.8 1424s0 .1 0 0c0 .1 0 .1 0 0l9.3 35h.1v-.1l-9.4-34.9c.1.1 0 0 0 0z"
           id="path16714" /></g><g
         id="g16720"><path
           class="st40"
           d="M1371 1417.2s-.1 0 0 0l12.9 33.8h.1v-.1l-13-33.8c.1.1 0 .1 0 .1z"
           id="path16718" /></g><g
         id="g16724"><path
           class="st40"
           d="M1328 1428.6s0 .1 0 0l5.5 35.8h.1s.1 0 0-.1l-5.6-35.7c.1 0 0 0 0 0z"
           id="path16722" /></g><g
         id="g16728"><path
           class="st40"
           d="M1348.8 1424.3s-.1 0 0 0c-3.3.8-6.6 1.6-9.8 2.3-.2 0-.4.1-.5.1-.1 0-.4.1-.5.1l7.3 35.4h.1c.4-.1.8-.2 1.3-.3 3.8-.8 7.6-1.7 11.4-2.7l-9.3-34.9z"
           id="path16726" /></g><g
         id="g16732"><path
           class="st40"
           d="M1337.9 1012.2s0-.1 0 0l7.3-35.5c-.4-.1-.9-.2-1.3-.3-3.8-.8-7.7-1.4-11.6-2l-5.4 35.8c3.3.5 6.6 1.1 9.9 1.7.3.1.7.2 1.1.3z"
           id="path16730" /></g><g
         id="g16736"><path
           class="st40"
           d="M1410.6 1396.9c0 .1 0 .1 0 0l19.7 30.4h.1l-19.8-30.4c.1 0 .1 0 0 0z"
           id="path16734" /></g><g
         id="g16740"><path
           class="st40"
           d="M1444.4 1369.6c-2.4 2.3-4.8 4.7-7.3 6.9-.3.3-.5.5-.8.7l24.1 27 1-.9c2.9-2.6 5.8-5.3 8.5-8.1v-.1l-25.5-25.5z"
           id="path16738" /></g><g
         id="g16744"><path
           class="st40"
           d="M1445.2 1368.8s0 .1 0 0c0 .1 0 .1 0 0l25.5 25.6z"
           id="path16742" /></g><g
         id="g16748"><path
           class="st40"
           d="M1428.7 1383.8h-.1s0 .1.1 0l22.7 28.1z"
           id="path16746" /></g><g
         id="g16752"><path
           class="st40"
           d="M1459.4 1353.1s-.1 0 0 0c-2.2 2.6-4.4 5.2-6.6 7.6l-.3.3c-.1.2-.3.3-.5.5l26.8 24.3c.1-.2.3-.3.4-.5.1-.2.3-.3.4-.5 2.6-2.9 5.2-5.9 7.6-8.9z"
           id="path16750" /></g><g
         id="g16756"><path
           class="st40"
           d="M1427.8 1384.5c-2.6 2.1-5.3 4.1-8 6.1l-.9.7v.1l21.2 29.3c.4-.3.7-.5 1.1-.8 3.2-2.3 6.3-4.8 9.3-7.1v-.1l-22.7-28.2z"
           id="path16754" /></g><g
         id="g16760"><path
           class="st40"
           d="M1391.4 1408.1h-.1l16.4 32.2h.1v-.1z"
           id="path16758" /></g></g></g><g
     id="g16152"
     transform="translate(-267.442 -176.6)"><defs
       id="defs16121"><path
         id="SVGID_6_"
         d="M950.1 917c-2.8 7.6-11.4 12.6-19.3 11.3l-52.4-8.7 126.7 187.4 72.6-42.5v-46.8L970.6 861.1z" /></defs><clipPath
       id="SVGID_7_"><use
         xlink:href="#SVGID_6_"
         id="use16123"
         x="0"
         y="0"
         width="100%"
         height="100%"
         overflow="visible" /></clipPath><defs
       id="defs16131"><filter
         id="Adobe_OpacityMaskFilter_1_"
         filterUnits="userSpaceOnUse"
         x="871.7"
         y="829.1"
         width="183.3"
         height="252.2"><feFlood
           result="back"
           id="feFlood16126" /><feBlend
           in="SourceGraphic"
           in2="back"
           mode="normal"
           id="feBlend16128" /></filter></defs><g
       clip-path="url(#SVGID_7_)"
       id="g16150"><g
         id="g16136"><path
           class="st19"
           d="M939.4 842.3l65.3 105.8c.1.2.3.5.4.7L939.8 843c-.2-.2-.3-.5-.4-.7z"
           id="path16134" /></g><g
         id="g16140"><path
           class="st17"
           id="polygon16138"
           d="M1051.4 1029.4l-65.3-105.8-46.3-80.6 65.3 105.8z" /></g><g
         id="g16144"><path
           class="st22"
           d="M919.4 829.6c8.6 1.4 16.1 6 20.4 13.5l46.3 80.6c8.5 14.9 1 35.4-16.8 45.9-8.9 5.2-18.7 7-27.4 5.6-8.6-1.4-16.1-6-20.4-13.5L875.2 881c-8.5-14.9-1-35.4 16.8-45.9 8.9-5.2 18.7-7 27.4-5.5z"
           id="path16142" /></g><g
         id="g16148"><path
           class="st21"
           d="M987.3 1068.1L922 962.3c4.3 7 11.6 11.4 20 12.7 8.6 1.4 18.4-.3 27.4-5.6 17.8-10.5 25.4-31 16.8-45.9l65.3 105.8c8.5 14.9 1 35.4-16.8 45.9-8.9 5.2-18.7 7-27.4 5.6-8.4-1.3-15.7-5.7-20-12.7z"
           id="path16146" /></g></g></g><rect
     style="color:#000000;overflow:visible;opacity:1;fill:#df3a8c;fill-opacity:1;fill-rule:evenodd;stroke:#000000;stroke-width:0.691654;stroke-miterlimit:19.3;stop-color:#000000"
     id="rect3934"
     width="316.9873"
     height="375.61398"
     x="636.16547"
     y="711.65631" /></svg>
